<?xml version="1.0" standalone="no"?>
<!DOCTYPE svg PUBLIC "-//W3C//DTD SVG 1.1//EN" "http://www.w3.org/Graphics/SVG/1.1/DTD/svg11.dtd" >
<svg xmlns="http://www.w3.org/2000/svg">
<metadata></metadata>
<defs>
<font id="nobileregular" horiz-adv-x="1536" >
<font-face units-per-em="2048" ascent="1638" descent="-410" />
<missing-glyph horiz-adv-x="512" />
<glyph horiz-adv-x="2048" />
<glyph horiz-adv-x="2048" />
<glyph unicode="&#xd;" horiz-adv-x="688" />
<glyph unicode=" "  horiz-adv-x="512" />
<glyph unicode="&#x09;" horiz-adv-x="512" />
<glyph unicode="&#xa0;" horiz-adv-x="512" />
<glyph unicode="!" horiz-adv-x="790" d="M502 186v-202h-209v202h209zM458 399h-115l-54 1180l228 -1z" />
<glyph unicode="&#x22;" horiz-adv-x="634" d="M374 1508v71h228v-71l-60 -450h-108zM36 1508v71h228v-71l-60 -450h-108z" />
<glyph unicode="#" horiz-adv-x="1234" d="M723 561h-186l-33 -266h-141l33 266h-166v123h176l27 221h-175v125h189l31 279h139l-31 -279h189l28 277h142l-31 -277h160v-125h-172l-27 -221h176v-123h-188l-31 -266h-141zM549 684h183l26 221h-182z" />
<glyph unicode="$" horiz-adv-x="1139" d="M935 1044q-93 34 -292 55v-390l32 -11q257 -91 319 -206q35 -66 35 -151.5t-23 -141.5q-41 -104 -141 -155q-100 -52 -222 -62v-160h-103v158q-155 11 -228 35l-146 48l49 144l103 -40q93 -27 222 -38v439l-106 27q-307 78 -307 334q0 82 39.5 140t81.5 90q92 73 292 81 v150h103v-154q163 -3 281 -42q52 -16 50 -23zM643 539v-405q100 1 160.5 55t60.5 140q0 88 -66 136q-43 32 -155 74zM540 739v360q-155 1 -204 -57q-42 -51 -42 -110t35.5 -98t134.5 -75z" />
<glyph unicode="%" horiz-adv-x="1724" d="M1320 89q-91 0 -139.5 70.5t-48.5 233.5q0 299 188 299t188 -299q0 -163 -48.5 -233.5t-139.5 -70.5zM1320 796q-150 0 -235.5 -102.5t-85.5 -321.5q0 -50 8 -99.5t30.5 -104t57 -95t93 -67.5t132.5 -27t132.5 27t93 67.5t57 95t30.5 104t8 99.5q0 219 -85.5 321.5 t-235.5 102.5zM409 788q-91 0 -139.5 70.5t-48.5 233.5q0 299 188 299t188 -299q0 -163 -48.5 -233.5t-139.5 -70.5zM409 1495q-150 0 -235.5 -102.5t-85.5 -321.5q0 -50 8 -99.5t30.5 -104t57 -95t93 -67.5t132.5 -27t132.5 27t93 67.5t57 95t30.5 104t8 99.5 q0 219 -85.5 321.5t-235.5 102.5zM454 37l682 1460l129 -67l-681 -1452z" />
<glyph unicode="&#x26;" horiz-adv-x="1658" d="M920 1119q0 92 -65.5 141.5t-175.5 49.5q-112 0 -168 -39.5t-65 -139.5v-10q0 -22 6 -43.5t17 -40.5t25 -37t29 -33t30.5 -28.5t29.5 -23.5t24.5 -17t17 -11l6.5 -4q70 21 113 37t80.5 35.5t56.5 42t29 52t10 69.5zM715 -39q-269 0 -418 118t-149 317q0 161 82.5 269 t251.5 157q-8 5 -22.5 15.5t-48.5 41.5t-61 64t-48.5 79.5t-21.5 90.5q0 148 104 240t295 92q97 0 173.5 -25t126 -70t75.5 -104.5t26 -130.5q0 -56 -15.5 -100.5t-43.5 -77.5t-74.5 -61.5t-98.5 -50t-127 -44.5l495 -390q14 204 14 405h164q0 -130 -12 -260t-23 -195 l-12 -64l226 -182l-86 -102l-211 177q-28 -53 -91 -95t-143 -66t-163.5 -36t-163.5 -12zM330 418q0 -168 89 -243t296 -75q350 0 449 156l-588 470q-246 -52 -246 -308z" />
<glyph unicode="'" horiz-adv-x="634" d="M205 1508v71h228v-71l-60 -450h-108z" />
<glyph unicode="(" horiz-adv-x="864" d="M771 1493q-37 -32 -75.5 -79.5t-80 -122t-73.5 -160.5t-52.5 -200.5t-20.5 -236.5q0 -126 20 -243t50 -202.5t69.5 -158t76 -117t70.5 -70.5l-83 -108q-32 20 -68.5 54.5t-82 89.5t-86.5 131t-76 167t-55.5 210.5t-20.5 248.5q0 144 26.5 277t67 229.5t93 179t99.5 132 t91 81.5z" />
<glyph unicode=")" horiz-adv-x="864" d="M395 694q0 125 -19 240.5t-49 201.5t-69 159t-75.5 119.5t-72.5 76.5l83 108q23 -15 55 -44t78.5 -81t89.5 -127t81.5 -165.5t61.5 -214t23 -257.5q0 -156 -27.5 -296t-69 -236t-96.5 -177t-102 -127t-94 -79l-100 106q36 31 73.5 77.5t79.5 120t74.5 158.5t53.5 200 t21 237z" />
<glyph unicode="*" horiz-adv-x="933" d="M420 1292l139 275l103 -58l-158 -272h311v-92h-309l170 -273l-102 -57l-154 275l-154 -275l-102 57l170 273h-309v92h311l-158 272l103 58z" />
<glyph unicode="+" horiz-adv-x="1040" d="M934 518h-314v-344h-141v344h-313v133h313v344h141v-344h314v-133z" />
<glyph unicode="," horiz-adv-x="537" d="M114 0v293h281v-249q0 -114 -58.5 -189.5t-170.5 -107.5l-51 94q75 26 102.5 60t27.5 99h-131z" />
<glyph unicode="-" horiz-adv-x="944" d="M810 508h-676v157h676v-157z" />
<glyph unicode="." horiz-adv-x="518" d="M245 213q48 0 78 -33.5t30 -81.5t-30 -81.5t-78 -33.5q-49 0 -80.5 34t-31.5 81t31.5 81t80.5 34z" />
<glyph unicode="/" horiz-adv-x="1043" d="M193 -117l625 1848l169 -62l-624 -1848z" />
<glyph unicode="0" horiz-adv-x="1356" d="M682 1069q-88 0 -156 -27.5t-110 -72.5t-68.5 -108.5t-36.5 -128.5t-10 -140q0 -119 25.5 -208.5t64 -140t92 -81.5t100.5 -41t99 -10q89 0 158 28.5t111 74.5t69 112t37 133.5t10 146.5q0 67 -9.5 127t-36 123.5t-68 109t-111.5 74.5t-160 29zM1253 590 q0 -103 -22.5 -195.5t-69 -170.5t-113.5 -134.5t-160.5 -88.5t-205.5 -32q-130 0 -232.5 42.5t-163.5 107t-101 150.5t-55 164.5t-15 156.5q0 133 36 245t105 196t178.5 131.5t247.5 47.5q131 0 234 -41.5t165 -105.5t102 -149t55 -164.5t15 -159.5z" />
<glyph unicode="1" horiz-adv-x="744" d="M314 0v1057l-207 -100l-53 126l257 119h190v-1202h-187z" />
<glyph unicode="2" horiz-adv-x="1104" d="M342 152h596v-152h-815v146l408 334q148 125 196.5 201.5t48.5 164.5q0 103 -72 158t-204 55q-58 0 -124.5 -16.5t-103.5 -33.5l-37 -17l-53 116q4 4 12.5 10t39.5 21.5t67 27.5t95.5 21.5t125.5 9.5q95 0 169.5 -21t120 -55t75 -81t40.5 -94.5t11 -101.5 q0 -78 -27.5 -146t-97.5 -148t-192 -175z" />
<glyph unicode="3" horiz-adv-x="1136" d="M775 843q0 114 -71.5 167t-217.5 53q-73 0 -147 -17.5t-112 -35.5l-38 -18l-50 133q19 9 51.5 22.5t125 36t176.5 22.5q59 0 115.5 -8.5t118.5 -31.5t108 -59.5t76 -98.5t30 -142q0 -69 -21.5 -126t-54 -92t-73 -59.5t-76 -34t-64.5 -9.5q41 -8 79 -21.5t85.5 -43 t82 -68.5t58 -103.5t23.5 -142.5q0 -73 -27 -134.5t-72.5 -103t-106.5 -70.5t-127 -42.5t-135 -13.5q-103 0 -204 24t-151 48l-50 24l54 133q20 -10 54 -25t127.5 -40t173.5 -25q139 0 211.5 63t72.5 182q0 248 -336 285v143q60 0 112 11t99 35.5t74 71t27 111.5z" />
<glyph unicode="4" horiz-adv-x="1199" d="M762 1208l162 -39v-962h186v-139h-186v-328h-169v328h-649l-28 137zM755 930l-492 -725h492v725z" />
<glyph unicode="5" horiz-adv-x="1102" d="M518 -56q317 0 317 300q0 150 -77 234t-220 84q-105 0 -299 -94l-68 69v632h748v-151h-603v-396q0 3 23.5 20t83.5 36.5t133 19.5q203 0 327 -122.5t124 -327.5q0 -210 -130 -332.5t-361 -122.5q-87 0 -182 23.5t-147 45t-52 23.5l51 146l6 -3q6 -3 17.5 -8t27 -11.5 t35 -14t41.5 -14.5t47 -13.5t50.5 -11.5t53.5 -8t54 -3z" />
<glyph unicode="6" horiz-adv-x="1234" d="M946 335q0 -62 -17 -120t-52.5 -111t-101.5 -85.5t-153 -32.5q-79 0 -139.5 26.5t-95 67t-56.5 98t-29 110.5t-7 113q0 85 6 122q30 35 133 84.5t222 49.5q122 0 206 -80t84 -242zM117 425q0 -269 129 -425t376 -156q120 0 217 39.5t158 108t93 156t32 187.5 q0 203 -125 330.5t-341 127.5q-220 0 -341 -144q17 94 61 175.5t100.5 138.5t127.5 101.5t137.5 70t133.5 39.5l-43 145q-116 -27 -219.5 -77t-195 -128.5t-157.5 -177.5t-104.5 -230.5t-38.5 -280.5z" />
<glyph unicode="7" horiz-adv-x="1132" d="M981 1229l57 -122l-572 -1283l-168 76l525 1174h-678v155h836z" />
<glyph unicode="8" horiz-adv-x="1262" d="M637 1334q-207 0 -343 -96t-136 -270q0 -71 23.5 -129.5t64 -97.5t82.5 -63.5t92 -41.5q-124 -39 -193 -142t-69 -261q0 -95 37.5 -169t103.5 -119.5t151.5 -69t186.5 -23.5q208 0 337.5 96t129.5 283q0 158 -69 261t-193 142q50 17 92 41.5t82.5 63.5t64 97.5 t23.5 129.5q0 175 -131 271.5t-336 96.5zM637 -9q-168 0 -234.5 68t-66.5 196q0 140 86 230t215 90q126 0 207.5 -91t81.5 -231q0 -63 -12 -107.5t-43 -81t-89 -55t-145 -18.5zM637 691q-122 0 -211.5 79t-89.5 196q0 54 18 96t47 67.5t69.5 41.5t80.5 22t86 6q58 0 106 -11 t91 -35.5t67.5 -73t24.5 -115.5q0 -117 -85 -195t-204 -78z" />
<glyph unicode="9" horiz-adv-x="1234" d="M293 823q0 62 17 120t52.5 111t101.5 85.5t153 32.5q79 0 139.5 -26.5t95 -67t56.5 -98t29 -110.5t7 -113q0 -85 -6 -122q-30 -35 -133 -84.5t-222 -49.5q-122 0 -206 80t-84 242zM1122 733q0 269 -129 425t-376 156q-120 0 -217 -39.5t-158 -108t-93 -156t-32 -187.5 q0 -203 125 -330.5t341 -127.5q219 0 341 144q-17 -94 -61 -175.5t-100.5 -138.5t-127.5 -101.5t-137.5 -70t-133.5 -39.5l43 -145q116 27 219.5 77t195 128.5t157.5 177.5t104.5 230.5t38.5 280.5z" />
<glyph unicode=":" horiz-adv-x="596" d="M180 281h270v-281h-270v281zM180 864h270v-281h-270v281z" />
<glyph unicode=";" horiz-adv-x="596" d="M174 864h280v-281h-280v281zM173 0v293h281v-249q0 -114 -58.5 -189.5t-170.5 -107.5l-51 94q75 26 102.5 60t27.5 99h-131z" />
<glyph unicode="&#x3c;" horiz-adv-x="1507" d="M333 663l655 603l102 -110l-551 -493l551 -493l-102 -110z" />
<glyph unicode="=" horiz-adv-x="864" d="M682 508h-588v131h588v-131zM682 280h-588v131h588v-131z" />
<glyph unicode="&#x3e;" horiz-adv-x="1507" d="M435 60l-102 110l551 493l-551 493l102 110l655 -603z" />
<glyph unicode="?" horiz-adv-x="1232" d="M467 675v-383h-180v485q110 38 187 70.5t144.5 71t107 78.5t62 90t22.5 110q0 122 -73.5 171.5t-237.5 49.5q-54 0 -107.5 -8.5t-91.5 -20.5t-68.5 -25t-45.5 -21.5t-15 -10.5l-59 143q0 1 19.5 11t58 26t86 30.5t113 25.5t129.5 11q84 0 155.5 -12.5t132.5 -40t104 -69 t67 -103t24 -138.5q0 -55 -11 -104.5t-29.5 -89.5t-47.5 -77.5t-58.5 -65.5t-71 -55.5t-76 -46.5t-81.5 -39.5t-80 -33.5t-79 -29zM368 -40q-42 0 -73 30.5t-31 74.5q0 43 30.5 73.5t73.5 30.5t74 -30.5t31 -74.5t-31 -74t-74 -30z" />
<glyph unicode="@" horiz-adv-x="1927" d="M1237 987l-25 5t-69 10.5t-82 5.5q-116 0 -213.5 -55t-156 -155.5t-58.5 -224.5q0 -243 225 -243q77 0 143 33t119 100t83.5 180.5t32.5 262.5zM1470 134l91 -92l-2 -2q-85 -94 -250 -147q-149 -48 -336 -48q-172 0 -312.5 39t-236.5 106t-161.5 160.5t-95 200.5 t-29.5 227q0 166 48 309.5t130 246.5t191 176.5t232 109.5t251 36q133 0 252.5 -27t221.5 -83.5t176.5 -138t116.5 -197.5t42 -254q0 -125 -31 -225t-78 -160.5t-108 -100.5t-116.5 -55.5t-107.5 -15.5q-34 0 -55.5 9t-30.5 28.5t-11.5 36t-2.5 43.5v230v2 q-10 -49 -30.5 -97t-56.5 -94t-81.5 -80.5t-110 -56t-137.5 -21.5q-172 0 -268 105t-96 286q0 97 43.5 194t117.5 173t181 123.5t225 47.5q36 0 107 -8t124 -16l54 -8l55 -109v-670q122 0 188 102.5t66 338.5q0 129 -38 229t-99.5 161t-148 100.5t-173 54t-184.5 14.5 q-150 0 -278 -50.5t-221.5 -143.5t-146.5 -233t-53 -312q0 -278 174.5 -435.5t511.5 -158.5q56 0 108.5 5t94 13.5t78.5 20t65.5 24t52 25t39.5 24t27 20t16 13.5z" />
<glyph unicode="A" d="M1085 485l-317 975l-317 -975h634zM1118 383h-700l-123 -383h-193l516 1579h300l516 -1579h-193z" />
<glyph unicode="B" horiz-adv-x="1468" d="M1070 1188q0 92 -41.5 143.5t-152.5 78t-314 26.5h-171v-521h259q129 0 214 18.5t129 57t60.5 84.5t16.5 113zM617 143q141 0 234 14t159 50.5t95.5 99.5t29.5 159q0 176 -113.5 248t-367.5 72h-263v-643h226zM910 862q407 -47 407 -428q0 -101 -36.5 -178t-98 -125 t-153 -78t-190.5 -41.5t-222 -11.5h-420v1579h361q170 0 292.5 -19t196.5 -50.5t116.5 -83t57 -107t14.5 -131.5q0 -42 -5.5 -76.5t-25 -77t-53 -74t-95.5 -58.5t-146 -40z" />
<glyph unicode="C" horiz-adv-x="1267" d="M1089 1412q-3 1 -27 8.5t-35.5 10.5t-39 9.5t-50.5 9.5t-57.5 5.5t-70.5 2.5q-133 0 -227 -47t-148.5 -138t-79 -209.5t-24.5 -275.5q0 -153 23 -270t64 -193.5t102.5 -125t132 -68.5t157.5 -20q17 0 36 2t36 4.5t37 7t35 8.5t35 10.5t31.5 10.5t29 10.5t24.5 9t21.5 8.5 t15.5 7l73 29l56 -139l-69 -28q-1 0 -33 -15t-60 -25t-73.5 -23.5t-101 -21t-113.5 -7.5q-110 0 -202.5 25t-159.5 68t-119 105.5t-85.5 133.5t-55 155.5t-30 167.5t-8.5 174q0 148 24 270t63 206t95.5 147.5t115 100.5t129 60t130 30.5t123.5 7.5q61 0 115.5 -6.5t81.5 -13 t68 -19t51 -15.5l86 -26l-45 -145z" />
<glyph unicode="D" horiz-adv-x="1569" d="M1156 789q0 120 -13 215t-45.5 178t-84 137.5t-131 85.5t-184.5 31h-381v-1293h381q105 0 184.5 31t131 85t83.5 136.5t45.5 178t13.5 215.5zM698 1579q659 0 659 -791q0 -788 -659 -788h-575v1579h575z" />
<glyph unicode="E" horiz-adv-x="1183" d="M1129 0h-983v1579h970v-143h-776v-545h678v-115h-678v-633h789v-143z" />
<glyph unicode="F" horiz-adv-x="1095" d="M342 762v-762h-196v1579h921v-143h-725v-557h664v-117h-664z" />
<glyph unicode="G" horiz-adv-x="1508" d="M754 -41q-195 0 -338.5 103.5t-218 290t-74.5 433.5q0 417 181 624q175 200 493 200q241 0 431 -117l25 -17l-66 -135q-81 69 -256 103q-64 13 -153.5 13.5t-171.5 -32t-135 -90t-87 -143.5q-60 -157 -60 -410q0 -385 144 -544q116 -127 333 -127q171 0 273.5 72.5 t102.5 215.5v285h-402v127h587v-811h-88l-53 213q-46 -191 -309 -240q-74 -14 -158 -14z" />
<glyph unicode="H" horiz-adv-x="1512" d="M1172 0v764h-832v-764h-194v1579h194v-700h832v700h194v-1579h-194z" />
<glyph unicode="I" horiz-adv-x="983" d="M195 112h204v1349h-204v118h593v-118h-206v-1349h206v-112h-593v112z" />
<glyph unicode="J" horiz-adv-x="782" d="M110 -90l-51 125q161 24 225 79q62 51 81.5 119t19.5 246v1100h192v-1065q0 -200 -28.5 -310.5t-114.5 -193.5q-105 -100 -324 -100z" />
<glyph unicode="K" horiz-adv-x="1367" d="M388 747v-747h-194v1579h194v-725h223l490 725h193l-529 -781l596 -798h-203l-555 747h-215z" />
<glyph unicode="L" horiz-adv-x="1076" d="M1086 0h-940v1579h194v-1436h746v-143z" />
<glyph unicode="M" horiz-adv-x="1862" d="M833 0l-513 1509v-1509h-155v1579h291l475 -1411l475 1411h291v-1579h-155v1509l-513 -1509h-196z" />
<glyph unicode="N" horiz-adv-x="1665" d="M1297 145v1434h162v-1579h-262l-829 1434v-1434h-162v1579h262z" />
<glyph unicode="O" horiz-adv-x="1558" d="M1434 784q0 -145 -21 -267t-71 -226.5t-125 -177t-186 -113.5t-253 -41q-62 0 -119 7.5t-125 30.5t-124 60t-111 101t-92 148t-60 206.5t-23 271.5q0 146 22 266.5t59 204.5t90 148.5t109 103t122 62.5t122 32.5t116 8.5q146 0 260 -40.5t190 -112.5t126 -176.5t72 -227 t22 -269.5zM1234 784q0 188 -32 321t-94 209t-142 110t-186 34t-187 -35t-131 -94.5t-82 -147.5t-44 -183.5t-12 -213.5q0 -183 32 -315t94 -209.5t143 -113t187 -35.5q88 0 159 24t120 70t84 105.5t54 137.5t28 159t9 177z" />
<glyph unicode="P" horiz-adv-x="1376" d="M552 784q134 0 232 14.5t159 39t97 63.5t49.5 82t13.5 101q0 54 -3.5 91t-15 77t-33.5 66t-59 50.5t-90.5 38t-129.5 21.5t-175 8h-215v-652h170zM1285 1108q0 -111 -34.5 -193t-115.5 -146t-227 -97t-356 -33h-170v-639h-194v1579h397q205 0 342.5 -29.5t215.5 -92 t110 -146t32 -203.5z" />
<glyph unicode="Q" horiz-adv-x="1563" d="M782 1458q-108 0 -190 -36t-133 -96.5t-83 -149t-44.5 -183t-12.5 -209.5t12.5 -209.5t44.5 -183t83 -148.5t133 -96t190 -36t190 36t133 96t83 148.5t44.5 183t12.5 209.5t-12.5 209.5t-44.5 183t-83 149t-133 96.5t-190 36zM1445 784q0 -170 -30.5 -306.5t-93.5 -243 t-165 -174t-239 -89.5l379 -264l-119 -131l-493 389q-282 32 -424 242.5t-142 584.5q0 145 24 268t76 225t129 174t187.5 111.5t247.5 39.5q62 0 120.5 -8.5t126.5 -32t125.5 -61.5t112.5 -102.5t93.5 -148.5t61.5 -205t23 -268z" />
<glyph unicode="R" horiz-adv-x="1345" d="M809 797q98 -11 171 -36.5t128.5 -71.5t83.5 -119t28 -173v-397h-182v412q0 85 -23 142t-81.5 99t-164 61t-266.5 19h-180v-733h-194v1579h376q265 0 392 -28q237 -52 300 -230q25 -70 25 -161q0 -160 -113.5 -261.5t-299.5 -101.5zM477 862q55 0 87.5 0.5t86.5 3t88 7.5 t81 15t76.5 24.5t62 36.5t51 50t30.5 66.5t12 84.5q0 56 -11.5 98t-30.5 72.5t-55.5 51.5t-75.5 33.5t-101.5 19.5t-123 9t-149.5 2h-182v-574h154z" />
<glyph unicode="S" horiz-adv-x="1314" d="M170 72l20 150q65 -34 110 -53.5t127.5 -38.5t172.5 -19q95 0 167.5 15.5t128.5 50t85.5 94.5t29.5 145q0 62 -18 108.5t-55.5 80t-81 56t-106.5 44.5l-291 102q-102 36 -173.5 82t-111 99.5t-56.5 108.5t-17 120q0 90 35 161t87.5 113.5t122 70t132 38t122.5 10.5 q270 0 493 -126l-30 -147q-67 43 -176.5 82t-224.5 39q-109 0 -184.5 -17.5t-117 -52t-59 -78t-17.5 -102.5q0 -90 55 -141t185 -93l283 -92q39 -13 69 -24t72.5 -32.5t74 -44.5t66 -58.5t56.5 -76.5t36 -98t14 -122q0 -43 -6.5 -85t-23.5 -89.5t-43.5 -88t-71 -79 t-101.5 -65.5t-138 -43.5t-179 -16.5q-133 0 -259.5 33t-202.5 80z" />
<glyph unicode="T" horiz-adv-x="1083" d="M1096 1436h-458v-1436h-190v1436h-460v143h1108v-143z" />
<glyph unicode="U" horiz-adv-x="1664" d="M830 -41q-168 0 -289 49.5t-195 148.5t-108 236t-34 322v864h192v-868q0 -129 14 -227t42 -164t64 -110t87 -68t104 -33t123 -9q86 0 147 13t118 52t92 105.5t56 177t21 263.5v868h196v-864q0 -133 -17 -240.5t-60 -206t-113 -165t-181 -105.5t-259 -39z" />
<glyph unicode="V" horiz-adv-x="1375" d="M566 0l-496 1579h184l434 -1399l434 1399h182l-494 -1579h-244z" />
<glyph unicode="W" horiz-adv-x="1997" d="M1135 1489l294 -1354l310 1444h181l-336 -1579h-287l-236 1067l-63 306l-64 -306l-235 -1067h-286l-336 1579h180l310 -1444l294 1354h274z" />
<glyph unicode="X" horiz-adv-x="1300" d="M630 594l-368 -594h-218l497 800l-495 779h196l408 -656l408 656h196l-495 -779l497 -800h-218l-368 594l-20 32z" />
<glyph unicode="Y" horiz-adv-x="1272" d="M641 677l58 129l355 773h191l-514 -1094v-485h-190v485l-514 1094h197l354 -773z" />
<glyph unicode="Z" horiz-adv-x="1193" d="M1114 1579v-160l-833 -1276h835v-143h-1032v180l829 1267h-829v132h1030z" />
<glyph unicode="[" horiz-adv-x="1054" d="M269 1579h664v-143h-471v-1293h471v-143h-664v1579z" />
<glyph unicode="\" horiz-adv-x="1031" d="M275 1731l623 -1845l-160 -58l-621 1851z" />
<glyph unicode="]" horiz-adv-x="1114" d="M161 1579h664v-1579h-664v143h471v1293h-471v143z" />
<glyph unicode="^" horiz-adv-x="1428" d="M502 432l-128 78l292 501h96l292 -501l-128 -78l-212 377z" />
<glyph unicode="_" horiz-adv-x="1265" d="M1067 -111h-940v144h940v-144z" />
<glyph unicode="`" horiz-adv-x="778" d="M463 356l-67 -26l-328 555l242 89z" />
<glyph unicode="a" horiz-adv-x="1239" d="M552 119q174 0 336 152v298q-128 21 -241 21t-178 -16t-101 -48q-64 -60 -64 -179t59.5 -173.5t188.5 -54.5zM888 665v48q0 100 -9 159t-46.5 101t-86.5 58t-116.5 16t-125 -12.5t-100 -30t-78.5 -34.5q-59 -30 -73 -42l-68 132l45 25q175 105 376 105q272 0 372 -115 t100 -389v-686h-140l-28 178q-146 -201 -405 -201q-186 0 -289 93t-103 269v4q0 178 121 275t323 97q72 0 175 -14.5t156 -35.5z" />
<glyph unicode="b" horiz-adv-x="1362" d="M736 -20q-109 0 -204.5 57.5t-165.5 140.5l-28 -178h-140v1579l190 35v-584q11 12 38.5 34.5t74 52.5t110 51.5t125.5 21.5q109 0 195 -40t137.5 -102t85 -145t46 -161t12.5 -158q0 -97 -16 -183.5t-52.5 -164.5t-91 -134t-135.5 -89t-181 -33zM1030 584q0 463 -287 463 q-103 0 -203.5 -48.5t-151.5 -96.5v-629q158 -150 355 -150q67 0 118 26.5t82.5 70t51.5 105t27.5 124t7.5 135.5z" />
<glyph unicode="c" horiz-adv-x="1122" d="M298 580q0 235 87.5 347.5t250.5 112.5q181 0 314 -116l57 133q-188 133 -388 133q-67 0 -132.5 -16.5t-135.5 -59.5t-122.5 -109.5t-86.5 -176t-34 -248.5q0 -140 34 -249t86.5 -174t122.5 -107t134.5 -57.5t130.5 -15.5q204 0 391 134l-57 134q-127 -118 -329 -118 q-66 0 -121.5 23t-102 73t-73 141t-26.5 216z" />
<glyph unicode="d" horiz-adv-x="1285" d="M108 584q0 170 51.5 305.5t158 218t252.5 82.5q118 0 217.5 -51t147.5 -111v586l190 -35v-1579h-141l-28 179q-59 -76 -157 -137.5t-207 -61.5q-126 0 -221.5 49t-151.5 135t-83.5 191.5t-27.5 228.5zM290 587q0 -464 298 -464q109 0 202.5 49t144.5 103v628 q-189 144 -353 144q-41 0 -76 -8.5t-76.5 -37.5t-71 -77t-49 -134.5t-19.5 -202.5z" />
<glyph unicode="e" horiz-adv-x="1145" d="M898 717q0 85 -18.5 148.5t-46 99t-66 57.5t-72 28.5t-71.5 6.5q-43 0 -83 -8t-86 -33t-79.5 -65t-55.5 -109t-22 -160h600v35zM298 567q0 -102 15.5 -177t53 -137t107 -94t170.5 -32q170 0 306 117l62 -145q-78 -57 -190.5 -89.5t-189.5 -32.5q-251 0 -387.5 161 t-136.5 440q0 145 39 261.5t108 193t163 117t205 40.5q214 0 328.5 -139.5t114.5 -374.5q0 -48 -8 -109h-760z" />
<glyph unicode="f" horiz-adv-x="825" d="M616 1516q-105 0 -137 -47q-26 -38 -28 -153v-59v-14v-74h348v-105h-348v-1064h-190v1064h-195v105h195v29q0 110 15.5 191t43 132.5t70.5 82.5t91 43t111 12q48 0 107.5 -20.5t97 -42.5t37.5 -29l-63 -125q-83 74 -155 74z" />
<glyph unicode="g" horiz-adv-x="1273" d="M332 -80q0 -108 64 -152.5t216 -44.5h89q182 0 262 45q83 44 83 151q0 114 -64 159q-69 48 -231 48h-322q-4 -3 -10.5 -8t-23 -23.5t-29.5 -40t-23.5 -58t-10.5 -76.5zM351 845q0 -47 21 -90t51 -71.5t59.5 -50t50.5 -31.5l21 -10l142 21q54 8 92.5 25.5t60.5 38.5t35 53 t16.5 61t3.5 69q0 110 -59 154t-198 44q-296 0 -296 -213zM161 358q-4 27 -4 28q0 65 31 110q28 39 130 58l86 16q-107 37 -160 111t-54 173q0 154 128.5 244.5t332.5 91.5h3q51 0 97.5 -8t76 -19t51.5 -22t32 -19l10 -8l79 39q43 20 196 20h30v-148l-238 1l30 -31 q30 -44 40.5 -66t10.5 -64q0 -53 -7.5 -97.5t-30.5 -93t-61 -85t-104 -65.5q-70 -31 -154 -42l-410 -55l19 -167h392q259 0 377 -79.5t118 -256.5q0 -165 -139 -261q-130 -90 -385 -90h-83q-205 0 -316 84.5t-111 247.5q0 47 16.5 86.5t35.5 62t49 41.5t40 23t25 9l2 1 q-40 9 -82.5 26.5t-58.5 44.5q-24 40 -25 52q0 1 -15 107z" />
<glyph unicode="h" horiz-adv-x="1299" d="M957 727q0 174 -60 247t-172 73q-66 0 -132 -19t-115 -47.5t-80.5 -52t-47.5 -40.5v-888h-190v1579l190 37v-627q40 43 70 70.5t78.5 61.5t105.5 51.5t121 17.5q98 0 173 -24t132 -77t87 -144t30 -218v-727h-190v727z" />
<glyph unicode="i" horiz-adv-x="634" d="M406 0h-182v1169h182v-1169zM319 1577q48 0 78 -33.5t30 -81.5t-30 -81.5t-78 -33.5q-49 0 -80.5 34t-31.5 81t31.5 81t80.5 34z" />
<glyph unicode="j" horiz-adv-x="588" d="M20 -258q50 32 84 67.5t54.5 71.5t31.5 85t14.5 95.5t3.5 114.5v993h190v-1015q0 -113 -27 -207.5t-74 -158.5t-105.5 -104.5t-124.5 -56.5zM302 1577q48 0 78 -33.5t30 -81.5t-30 -81.5t-78 -33.5q-49 0 -80.5 34t-31.5 81t31.5 81t80.5 34z" />
<glyph unicode="k" horiz-adv-x="1136" d="M1136 1169l-553 -521l586 -648h-221l-480 555l-116 -96v-459h-190v1579l190 35v-987l559 542h225z" />
<glyph unicode="l" horiz-adv-x="590" d="M213 0v1579l190 35v-1614h-190z" />
<glyph unicode="m" horiz-adv-x="2052" d="M1072 967q71 103 186 163t234 60q170 0 263 -115t93 -309v-766h-190v768q0 84 -13.5 140t-40.5 85.5t-60 41.5t-80 12q-180 0 -362 -189v-858h-190v768q0 85 -13 141.5t-40.5 86t-59.5 40.5t-79 11q-153 0 -340 -187v-860h-190v1169h141l27 -206q60 98 162.5 162.5 t230.5 64.5q132 0 210.5 -64.5t110.5 -158.5z" />
<glyph unicode="n" horiz-adv-x="1371" d="M381 880v-880h-190v1169h140l24 -187q62 78 191 142t258 64q50 0 96 -9.5t98 -39.5t89.5 -79t62.5 -134.5t25 -198.5v-727h-190v727q0 73 -11 129t-35.5 100.5t-69.5 67.5t-108 23q-102 0 -218.5 -61.5t-161.5 -105.5z" />
<glyph unicode="o" horiz-adv-x="1313" d="M308 582q0 -103 20 -186t60.5 -146.5t108.5 -98t159 -34.5t159 34.5t109 98t60.5 146.5t19.5 186t-20 186.5t-60.5 147.5t-108.5 99.5t-159 35.5t-159 -35t-108.5 -99.5t-60.5 -148t-20 -186.5zM126 582q0 126 32.5 234.5t96 192.5t166.5 132.5t235 48.5q106 0 194 -31.5 t150 -87.5t104.5 -132.5t62.5 -166.5t20 -190q0 -126 -32.5 -234t-96.5 -191t-167 -130t-235 -47q-106 0 -194 31t-149.5 85.5t-104 130.5t-62.5 165t-20 190z" />
<glyph unicode="p" horiz-adv-x="1354" d="M752 -20q-107 0 -202.5 53.5t-156.5 130.5v-629l-190 -22v1656h141l33 -198q68 89 164.5 154t209.5 65q78 0 144 -21t113.5 -56t85 -84t61 -102.5t39 -114.5t21.5 -116.5t6 -111.5q0 -94 -16.5 -180t-53.5 -164t-90.5 -135t-132.5 -91t-176 -34zM1039 543q0 72 -6 135 t-24.5 134t-48.5 120.5t-83.5 82t-124.5 32.5q-60 0 -123.5 -20t-111.5 -48.5t-79.5 -51.5t-44.5 -37v-605q8 -9 36 -31.5t74 -53.5t109 -54t121 -23q30 0 53.5 2.5t60 15t64 34t55.5 65t44 103.5q29 108 29 200z" />
<glyph unicode="q" horiz-adv-x="1285" d="M569 1190q116 0 219.5 -64.5t163.5 -154.5l34 198h139v-1648l-190 -23v666q-61 -77 -155 -130.5t-201 -53.5q-98 0 -178.5 34.5t-134 92t-90 136t-52.5 164t-16 177.5q0 96 15.5 182.5t51 165t88 135t131 90t175.5 33.5zM290 584q0 -83 10 -151.5t26.5 -115.5t40.5 -83 t49 -56.5t55 -33.5t55 -17t53 -4q108 0 209.5 50t146.5 95v623q-70 70 -176.5 113t-189.5 43q-279 0 -279 -463z" />
<glyph unicode="r" horiz-adv-x="885" d="M690 1190q59 0 100 -12v-152q-5 4 -62 4q-75 0 -158 -32.5t-125.5 -60t-59.5 -43.5v-894h-190v1169h143l30 -192q163 213 322 213z" />
<glyph unicode="s" horiz-adv-x="995" d="M112 100l64 145q63 -54 151 -86t156 -32q122 0 200.5 45.5t78.5 141.5q0 80 -48 120t-143 71l-174 57q-92 30 -151 64t-90.5 75.5t-42.5 85t-11 104.5q0 38 12 77t41 80t73 71.5t114 50.5t157 20q110 0 224 -42.5t158 -80.5l-62 -143q-150 118 -309 118q-134 0 -191 -45 t-57 -117q0 -47 33 -77.5t131 -65.5l168 -59q108 -38 177.5 -79t104 -88.5t46.5 -93t12 -108.5q0 -74 -26.5 -132.5t-69.5 -95t-101.5 -61t-117.5 -34t-123 -9.5q-101 0 -216.5 39.5t-167.5 83.5z" />
<glyph unicode="t" horiz-adv-x="828" d="M502 -16q-154 0 -219 83.5t-65 282.5v715h-183v104h191l20 361l162 46v-407h333v-104h-333v-767q0 -66 11.5 -103.5t31.5 -50.5t55 -13q78 0 188 65l38 21l67 -123l-47 -30q-11 -7 -46 -24q-32 -16 -94.5 -36t-109.5 -20z" />
<glyph unicode="u" horiz-adv-x="1264" d="M322 442q0 -154 52.5 -236.5t179.5 -82.5q193 0 354 151v895h190v-1169h-141l-27 176q-90 -101 -183 -148.5t-203 -47.5q-195 0 -303.5 111t-108.5 351v727h190v-727z" />
<glyph unicode="v" horiz-adv-x="1170" d="M672 0h-186l-428 1169h188l336 -970l330 970h190z" />
<glyph unicode="w" horiz-adv-x="1709" d="M820 995l-238 -995h-206l-320 1169h184l234 -1045l258 1045h202l250 -1047l240 1047h186l-320 -1169h-206z" />
<glyph unicode="x" horiz-adv-x="1177" d="M90 1169h216l282 -467l290 467h210l-406 -585l398 -584h-204l-282 477l-288 -477h-212l408 584z" />
<glyph unicode="y" horiz-adv-x="1223" d="M630 249l301 920h195l-437 -1206q-48 -132 -63 -166q-89 -190 -245 -238q-58 -18 -126 -18l-51 125q151 26 217 95t123 262l-451 1146h182z" />
<glyph unicode="z" horiz-adv-x="1008" d="M904 1169v-165l-626 -859h626v-145h-802v166l638 863h-608v140h772z" />
<glyph unicode="{" horiz-adv-x="823" d="M75 571q238 0 238 -308q0 -161 45 -269q87 -203 364 -203l1 169q-62 0 -102 8t-75 41q-17 16 -27 40.5t-22 69t-14 169.5q0 314 -241 377q241 63 241 377q2 125 14 169.5t22 69t27 40.5q35 33 75 41t102 8l-1 169q-277 0 -364 -203q-45 -108 -45 -269q0 -308 -238 -308 v-188z" />
<glyph unicode="|" horiz-adv-x="625" d="M224 -111v1807h178v-1807h-178z" />
<glyph unicode="}" horiz-adv-x="827" d="M778 571q-238 0 -238 -308q0 -161 -46 -269q-86 -203 -363 -203l-1 169q62 0 102 8t75 41q17 16 27 40.5t22 69t14 169.5q0 314 241 377q-241 63 -241 377q-2 125 -14 169.5t-22 69t-27 40.5q-35 33 -75 41t-102 8l1 169q277 0 363 -203q46 -108 46 -269q0 -308 238 -308 v-188z" />
<glyph unicode="~" horiz-adv-x="899" d="M661 390q-49 0 -106 18.5t-98 41t-83.5 41t-65.5 18.5q-29 0 -44 -24.5t-15 -90.5h-156q0 260 201 260q50 0 102.5 -19.5t89 -43t78.5 -43t74 -19.5q59 0 59 111h156q0 -114 -52 -182t-140 -68z" />
<glyph unicode="&#xa1;" horiz-adv-x="790" d="M502 1393v202h-209v-202h209zM458 1180h-115l-54 -1180l228 1z" />
<glyph unicode="&#xa2;" horiz-adv-x="1138" d="M616 -159h103v140q43 0 90.5 9.5t85.5 22t69 25t49 21.5t17 9l-46 137l-7 -4t-20.5 -11t-31.5 -15t-42 -16t-49 -14.5t-55.5 -10.5t-59.5 -4v908q22 0 45 -3.5t43.5 -8.5t40.5 -12t37 -15t32.5 -16t27.5 -15t20.5 -12.5t13.5 -8.5l5 -3l57 133l-19 10.5t-52 26.5t-72 32 t-88 28t-91 12v143h-103v-140q-46 -4 -90.5 -14.5t-92 -33t-89 -54.5t-79.5 -81t-64.5 -108.5t-42.5 -141t-16 -176.5q0 -96 16 -177.5t43 -141t65 -107.5t79.5 -79t89.5 -52.5t92 -31.5t89 -13v-137zM616 129q-47 5 -87.5 22t-77.5 52t-63 85t-41 124.5t-15 167.5 q0 420 284 457v-908z" />
<glyph unicode="&#xa3;" horiz-adv-x="1128" d="M207 126v-126h797v132h-616q5 7 13 19.5t28.5 57t36 95t28.5 131.5t13 168h428v103h-428l-31 35q-85 110 -85 218q0 221 268 221q47 0 98.5 -9.5t91 -23t72.5 -27t50 -23.5l18 -9l50 131l-16.5 9.5t-53.5 25.5t-86 31t-124.5 26t-158.5 11q-102 0 -192 -47t-144.5 -132 t-54.5 -187q0 -41 12 -82t29 -70.5t34 -53t28.5 -35t12.5 -9.5h-173v-103h197q0 -50 -5 -98.5t-13 -88t-18.5 -76t-22.5 -65t-23.5 -53t-22.5 -42t-19 -29.5t-13 -19z" />
<glyph unicode="&#xa4;" horiz-adv-x="1366" d="M483 1177q-87 -88 -87 -202q0 -112 82 -194t192 -82q115 0 203 88q89 89 89 205q0 111 -81 192q-82 82 -193 82q-116 0 -205 -89zM321 742q-68 102 -68 225q0 130 75 241l-194 194l124 124l194 -193q112 76 243 76q123 0 225 -68l186 185l124 -124l-187 -187 q61 -98 61 -215q0 -131 -76 -243l202 -202l-124 -125l-203 203q-110 -75 -240 -75q-117 0 -216 61l-189 -189l-124 125z" />
<glyph unicode="&#xa5;" horiz-adv-x="1277" d="M524 688l-483 891h194l420 -791l420 791h194l-481 -891h263v-104h-296v-96h296v-99h-296v-389h-190v389h-302v99h302v96h-302v104h261z" />
<glyph unicode="&#xa6;" horiz-adv-x="640" d="M249 889v690h188v-690h-188zM249 0v690h188v-690h-188z" />
<glyph unicode="&#xa7;" horiz-adv-x="1192" d="M235 20l61 138q58 -51 141.5 -79.5t149.5 -28.5q55 0 100.5 9t82 29t56.5 54.5t20 80.5q0 40 -12.5 69.5t-40 50.5t-56 34t-72.5 28l-160 54q-87 29 -143 61t-85.5 71.5t-40.5 80.5t-11 99q0 26 7 52t25 54.5t45.5 51.5t73.5 41t104 25q-81 31 -132.5 63.5t-77.5 70 t-35.5 73t-9.5 83.5q0 36 11.5 73t39 75.5t69 68t108 48.5t149.5 19q104 0 212.5 -40.5t149.5 -76.5l-58 -136q-65 51 -141 79.5t-153 28.5q-231 0 -231 -149q0 -45 31.5 -74t124.5 -62l155 -56q83 -30 141.5 -61.5t93 -61.5t54 -66.5t26 -70t6.5 -77.5q0 -89 -68 -152 t-181 -72q64 -22 110.5 -51t73 -58t42 -64.5t20.5 -65t5 -64.5q0 -71 -25.5 -126.5t-66 -90t-96 -57.5t-112 -32t-116.5 -9q-96 0 -205.5 37.5t-158.5 78.5zM614 600q117 0 178 39t61 112q0 35 -11 62t-32 43.5t-43.5 27t-53 15t-51.5 6t-48 1.5q-125 0 -180 -39t-55 -114 q0 -153 235 -153z" />
<glyph unicode="&#xa8;" horiz-adv-x="952" d="M233 611q48 0 78 -33.5t30 -81.5t-30 -81.5t-78 -33.5q-49 0 -80.5 34t-31.5 81t31.5 81t80.5 34zM723 611q48 0 78 -33.5t30 -81.5t-30 -81.5t-78 -33.5q-49 0 -80.5 34t-31.5 81t31.5 81t80.5 34z" />
<glyph unicode="&#xa9;" horiz-adv-x="2101" d="M554 831q0 -57 7 -107.5t24 -101t43 -92.5t67.5 -78.5t94.5 -61.5t126 -39.5t160 -14.5q127 0 280 78v126q-151 -76 -294 -76q-90 0 -152 17t-107.5 59t-66 113.5t-20.5 177.5t20.5 177.5t66 113.5t107.5 59t152 17q143 0 294 -76v126q-153 78 -280 78q-87 0 -160 -14.5 t-126 -39.5t-94.5 -61.5t-67.5 -78.5t-43 -92.5t-24 -101t-7 -107.5zM1039 1687q-107 0 -214 -27.5t-204 -79t-180.5 -128t-145 -169.5t-96.5 -210t-35 -243q0 -124 33.5 -240t92.5 -209t141.5 -169.5t179.5 -128t206.5 -79t221.5 -27.5t221.5 27.5t206.5 79t179.5 128 t141.5 169.5t92.5 209t33.5 240q0 126 -35 243t-96.5 210t-145 169.5t-180.5 128t-204 79t-214 27.5zM1039 101q-160 0 -296.5 57t-230.5 155.5t-147 232t-53 283.5q0 131 41 248t112.5 204.5t164.5 151.5t198 96.5t211 32.5t211 -32.5t198 -96.5t164.5 -151.5t112.5 -204.5 t41 -248q0 -150 -53 -283.5t-147 -232t-230.5 -155.5t-296.5 -57z" />
<glyph unicode="&#xaa;" horiz-adv-x="1186" d="M270 575h684v-129h-684v129zM561 781q42 0 82 12.5t67.5 30t48.5 36t31 30.5t9 13v238q-102 17 -176 17q-256 0 -256 -187q0 -105 43 -147.5t151 -42.5zM206 960q0 142 98.5 220t260.5 78q48 0 105.5 -8t94 -17.5t34.5 -14.5v58q0 51 -3.5 84t-15 64.5t-32.5 49t-56 28.5 t-85 11q-69 0 -142.5 -18t-109.5 -33.5t-39 -18.5l-53 109l9 4.5t25.5 12t39 16.5t52 18.5t61.5 17t71 12.5t78 5q102 0 171 -22t111.5 -71.5t60.5 -124t18 -185.5v-549h-116l-27 142l-5.5 -9t-16 -23t-26 -31t-39.5 -34t-52.5 -31.5t-69 -23t-85.5 -8.5q-148 0 -232.5 76 t-84.5 216z" />
<glyph unicode="&#xab;" horiz-adv-x="1533" d="M1366 842l-437 -265l437 -271v-207l-608 382v185l608 383v-207zM758 842l-436 -265l436 -271v-207l-608 382v185l608 383v-207z" />
<glyph unicode="&#xac;" horiz-adv-x="1724" d="M1272 338v685h-1178v151h1354v-836h-176z" />
<glyph unicode="&#xad;" horiz-adv-x="864" d="M622 508h-468v131h468v-131z" />
<glyph unicode="&#xae;" horiz-adv-x="1334" d="M668 1150q73 0 110.5 23.5t37.5 82.5q0 36 -38.5 53t-157.5 17v-176h48zM920 1261q0 -74 -35.5 -112.5t-130.5 -62.5l180 -250q-9 -3 -28 -13l-45 -24q-23 -12 -27 -14q-173 282 -174 283h-43v-261h-106v601h120q93 0 150 -13t98 -51t41 -83zM691 542q-124 0 -234.5 45.5 t-187.5 121.5t-122 180.5t-45 218.5t45 218t122 180.5t187.5 122t234.5 45.5q122 0 231.5 -44.5t188 -120t124.5 -180t46 -221.5t-46 -221.5t-124.5 -180t-188 -120t-231.5 -44.5zM690 1572q-207 0 -343.5 -134.5t-136.5 -332t136.5 -331t343.5 -133.5q208 0 345.5 134.5 t137.5 330.5q0 199 -138 332.5t-345 133.5z" />
<glyph unicode="&#xaf;" horiz-adv-x="1003" d="M780 98h-682v117h682v-117z" />
<glyph unicode="&#xb0;" horiz-adv-x="780" d="M385 1048q-63 0 -104 -43.5t-41 -105t41.5 -105.5t103.5 -44q63 0 102 43.5t39 105.5q0 63 -39 106t-102 43zM387 1139q105 0 170.5 -67.5t65.5 -172.5q0 -103 -65 -171t-171 -68q-108 0 -176 68.5t-68 171t68 171t176 68.5z" />
<glyph unicode="&#xb1;" horiz-adv-x="1143" d="M974 578h-314v-344h-141v344h-313v133h313v344h141v-344h314v-133zM941 -55h-701v139h701v-139z" />
<glyph unicode="&#xb2;" horiz-adv-x="1126" d="M485 820h406v-152h-638v137l271 240q133 117 178 179.5t45 129.5q0 70 -52 105.5t-137 35.5q-21 0 -48.5 -3t-54 -7.5t-54 -10t-50.5 -11t-41.5 -10.5t-29 -7.5l-10.5 -2.5v145q11 5 39.5 14t107 22.5t159.5 13.5q77 0 138 -18.5t98.5 -47.5t62.5 -67.5t34.5 -75 t9.5 -72.5q0 -93 -53 -175.5t-190 -199.5z" />
<glyph unicode="&#xb3;" horiz-adv-x="1208" d="M832 1383q0 75 -55 116.5t-169 41.5q-59 0 -117.5 -14.5t-87.5 -28.5l-29 -14l-47 127q5 3 15 7.5t41.5 16t63 20t77.5 15.5t89 7q47 0 94 -7.5t99 -27t90.5 -50t64 -82t25.5 -116.5q-1 -53 -19.5 -97.5t-46 -72.5t-61.5 -47t-64 -27t-54 -8q34 -7 65.5 -18t71.5 -34.5 t69.5 -55.5t49.5 -84t20 -115q0 -60 -23 -109.5t-61.5 -83.5t-89 -57.5t-105 -34t-110.5 -10.5q-166 0 -314 70q-15 8 -14 8l51 127q5 -3 15 -8t41 -17.5t62.5 -22.5t76 -17.5t85.5 -7.5q96 1 158 50.5t62 128.5q1 92 -64 149t-198 72v135q64 0 117 18t89 59t37 99z" />
<glyph unicode="&#xb4;" horiz-adv-x="1097" d="M546 328l-57 26l159 611l232 -91z" />
<glyph unicode="&#xb6;" horiz-adv-x="1314" d="M662 1577q-66 0 -120.5 -3.5t-110.5 -13t-100 -24.5t-83 -40.5t-64.5 -59t-40.5 -81t-15 -105.5q0 -78 27 -138.5t72.5 -99t109.5 -63t132.5 -34.5t147.5 -10v-905h190v916v512h135v-1428h186v1578z" />
<glyph unicode="&#xb7;" horiz-adv-x="518" d="M245 765q48 0 78 -33.5t30 -81.5t-30 -81.5t-78 -33.5q-49 0 -80.5 34t-31.5 81t31.5 81t80.5 34z" />
<glyph unicode="&#xb8;" horiz-adv-x="575" d="M136 -540v117l32 -10t73 -20.5t59 -10.5q27 0 42 1t36.5 8t32.5 21t19.5 40.5t8.5 65.5q0 79 -59.5 110.5t-193.5 31.5v262h121v-174q125 0 195 -54t70 -190q0 -236 -252 -236q-17 0 -36.5 2t-36.5 5.5t-34 7.5t-30.5 8t-24 7.5l-16.5 5.5z" />
<glyph unicode="&#xb9;" horiz-adv-x="740" d="M327 478v826l-171 -72l-37 113l237 95l140 -26v-936h-169z" />
<glyph unicode="&#xba;" horiz-adv-x="1276" d="M300 575h684v-129h-684v129zM371 1154q0 -79 15 -143t46.5 -112.5t83.5 -75t122 -26.5t122 26.5t83.5 75t46.5 112t15 143.5q0 79 -15 142.5t-46.5 112.5t-83.5 76t-122 27t-122 -26.5t-83.5 -75.5t-46.5 -113t-15 -143zM214 1152q0 80 16 151.5t50 133t83 106t119.5 70 t155.5 25.5t155.5 -25.5t120 -70t83.5 -106t50 -133t16 -151.5q0 -102 -26 -188t-77 -152.5t-133.5 -104t-188 -37.5t-188 37.5t-133.5 104t-77 152.5t-26 188z" />
<glyph unicode="&#xbb;" horiz-adv-x="1533" d="M167 1049l609 -383v-185l-609 -382v207l447 271l-447 265v207zM774 1049l609 -383v-185l-609 -382v207l447 271l-447 265v207z" />
<glyph unicode="&#xbc;" horiz-adv-x="1816" d="M1402 946l128 -31v-770h151v-111h-151v-261l-145 -23v284h-525l-22 110zM997 144h388v559l-122 -189zM345 568v845l-170 -72l-38 93l238 95l130 -26v-935h-160zM233 -30l1039 1395l122 -93l-1041 -1395z" />
<glyph unicode="&#xbd;" horiz-adv-x="2068" d="M401 568v845l-170 -72l-38 93l238 95l130 -26v-935h-160zM263 -30l1039 1395l122 -93l-1041 -1395zM1435 -20h406v-152h-638v137l271 240q133 117 178 179.5t45 129.5q0 70 -52 105.5t-137 35.5q-21 0 -48.5 -3t-54 -7.5t-54 -10t-50.5 -11t-41.5 -10.5t-29 -7.5 l-10.5 -2.5v145q11 5 39.5 14t107 22.5t159.5 13.5q77 0 138 -18.5t98.5 -47.5t62.5 -67.5t34.5 -75t9.5 -72.5q0 -93 -53 -175.5t-190 -199.5z" />
<glyph unicode="&#xbe;" horiz-adv-x="2159" d="M1708 946l128 -31v-770h151v-111h-151v-261l-145 -23v284h-525l-22 110zM1303 144h388v559l-122 -189zM539 -30l1039 1395l122 -93l-1041 -1395zM723 1383q0 75 -55 116.5t-169 41.5q-59 0 -117.5 -14.5t-87.5 -28.5l-29 -14l-47 127q5 3 15 7.5t41.5 16t63 20t77.5 15.5 t89 7q47 0 94 -7.5t99 -27t90.5 -50t64 -82t25.5 -116.5q-1 -53 -19.5 -97.5t-46 -72.5t-61.5 -47t-64 -27t-54 -8q34 -7 65.5 -18t71.5 -34.5t69.5 -55.5t49.5 -84t20 -115q0 -60 -23 -109.5t-61.5 -83.5t-89 -57.5t-105 -34t-110.5 -10.5q-52 0 -105 8t-91.5 19.5 t-69.5 23t-46 19.5l-16 8l51 127q5 -3 15 -8t41 -17.5t62.5 -22.5t76 -17.5t85.5 -7.5q96 1 158 50.5t62 128.5q1 92 -64 149t-198 72v135q64 0 117 18t89 59t37 99z" />
<glyph unicode="&#xbf;" horiz-adv-x="1232" d="M738 790v383h180v-485q-110 -38 -187 -70.5t-144.5 -71t-107 -78.5t-62 -90t-22.5 -110q0 -122 73.5 -171.5t237.5 -49.5q54 0 107.5 8.5t91.5 20.5t68.5 25t45.5 21.5t15 10.5l59 -143q0 -1 -19.5 -11t-58 -26t-86 -30.5t-113 -25.5t-129.5 -11q-84 0 -155.5 12.5 t-132.5 40t-104 69t-67 103t-24 138.5q0 55 11 104.5t29.5 89.5t47.5 77.5t58.5 65.5t71 55.5t76 46.5t81.5 39.5t80 33.5t79 29zM837 1505q42 0 73 -30.5t31 -74.5q0 -43 -30.5 -73.5t-73.5 -30.5t-74 30.5t-31 74.5t31 74t74 30z" />
<glyph unicode="&#xc0;" d="M1085 485l-317 975l-317 -975h634zM1118 383h-700l-123 -383h-193l516 1579h300l516 -1579h-193zM802 1758l-67 -26l-328 555l242 89z" />
<glyph unicode="&#xc1;" d="M1085 485l-317 975l-317 -975h634zM1118 383h-700l-123 -383h-193l516 1579h300l516 -1579h-193zM797 1732l-57 26l159 611l232 -91z" />
<glyph unicode="&#xc2;" d="M1085 485l-317 975l-317 -975h634zM1118 383h-700l-123 -383h-193l516 1579h300l516 -1579h-193zM767 2139l212 -377l128 78l-292 501h-96l-292 -501l128 -78z" />
<glyph unicode="&#xc3;" d="M1085 485l-317 975l-317 -975h634zM1118 383h-700l-123 -383h-193l516 1579h300l516 -1579h-193zM956 1732q-49 0 -106 18.5t-98 41t-83.5 41t-65.5 18.5q-29 0 -44 -24.5t-15 -90.5h-156q0 260 201 260q50 0 102.5 -19.5t89 -43t78.5 -43t74 -19.5q59 0 59 111h156 q0 -114 -52 -182t-140 -68z" />
<glyph unicode="&#xc4;" d="M1085 485l-317 975l-317 -975h634zM1118 383h-700l-123 -383h-193l516 1579h300l516 -1579h-193zM525 1962q48 0 78 -33.5t30 -81.5t-30 -81.5t-78 -33.5q-49 0 -80.5 34t-31.5 81t31.5 81t80.5 34zM1015 1962q48 0 78 -33.5t30 -81.5t-30 -81.5t-78 -33.5 q-49 0 -80.5 34t-31.5 81t31.5 81t80.5 34z" />
<glyph unicode="&#xc5;" d="M771 2009q105 0 170.5 -67.5t65.5 -172.5q0 -103 -65 -171q-11 -12 -23 -21l515 -1577h-193l-123 383h-700l-123 -383h-193l516 1578q-12 10 -23 20q-68 69 -68 171.5t68 171t176 68.5zM769 1918q-63 0 -104 -43.5t-41 -105t41.5 -105.5t103.5 -44q63 0 102 43.5 t39 105.5q0 63 -39 106t-102 43zM1085 485l-317 975l-317 -975h634z" />
<glyph unicode="&#xc6;" horiz-adv-x="1873" d="M1845 0h-839v371h-552l-192 -371h-209l826 1579h938v-143h-648v-545h605v-127h-603v-621h674v-143zM1004 1459l-490 -966h490v966z" />
<glyph unicode="&#xc7;" horiz-adv-x="1267" d="M1089 1412q-3 1 -27 8.5t-35.5 10.5t-39 9.5t-50.5 9.5t-57.5 5.5t-70.5 2.5q-133 0 -227 -47t-148.5 -138t-79 -209.5t-24.5 -275.5q0 -153 23 -270t64 -193.5t102.5 -125t132 -68.5t157.5 -20q17 0 36 2t36 4.5t37 7t35 8.5t35 10.5t31.5 10.5t29 10.5t24.5 9t21.5 8.5 t15.5 7l73 29l56 -139l-69 -28q-1 0 -33 -15t-60 -25t-73.5 -23.5t-101 -21t-113.5 -7.5q-110 0 -202.5 25t-159.5 68t-119 105.5t-85.5 133.5t-55 155.5t-30 167.5t-8.5 174q0 148 24 270t63 206t95.5 147.5t115 100.5t129 60t130 30.5t123.5 7.5q61 0 115.5 -6.5t81.5 -13 t68 -19t51 -15.5l86 -26l-45 -145zM678 -635v117l32 -10t73 -20.5t59 -10.5q27 0 42 1t36.5 8t32.5 21t19.5 40.5t8.5 65.5q0 79 -59.5 110.5t-193.5 31.5v262h121v-174q125 0 195 -54t70 -190q0 -236 -252 -236q-17 0 -36.5 2t-36.5 5.5t-34 7.5t-30.5 8t-24 7.5l-16.5 5.5 z" />
<glyph unicode="&#xc8;" horiz-adv-x="1183" d="M1129 0h-983v1579h970v-143h-776v-545h678v-115h-678v-633h789v-143zM665 1758l-67 -26l-328 555l242 89z" />
<glyph unicode="&#xc9;" horiz-adv-x="1183" d="M1129 0h-983v1579h970v-143h-776v-545h678v-115h-678v-633h789v-143zM660 1732l-57 26l159 611l232 -91z" />
<glyph unicode="&#xca;" horiz-adv-x="1183" d="M1129 0h-983v1579h970v-143h-776v-545h678v-115h-678v-633h789v-143zM630 2139l212 -377l128 78l-292 501h-96l-292 -501l128 -78z" />
<glyph unicode="&#xcb;" horiz-adv-x="1183" d="M1129 0h-983v1579h970v-143h-776v-545h678v-115h-678v-633h789v-143zM388 1962q48 0 78 -33.5t30 -81.5t-30 -81.5t-78 -33.5q-49 0 -80.5 34t-31.5 81t31.5 81t80.5 34zM878 1962q48 0 78 -33.5t30 -81.5t-30 -81.5t-78 -33.5q-49 0 -80.5 34t-31.5 81t31.5 81t80.5 34z " />
<glyph unicode="&#xcc;" horiz-adv-x="983" d="M195 112h204v1349h-204v118h593v-118h-206v-1349h206v-112h-593v112zM536 1758l-67 -26l-328 555l242 89z" />
<glyph unicode="&#xcd;" horiz-adv-x="983" d="M195 112h204v1349h-204v118h593v-118h-206v-1349h206v-112h-593v112zM481 1732l-57 26l159 611l232 -91z" />
<glyph unicode="&#xce;" horiz-adv-x="983" d="M195 112h204v1349h-204v118h593v-118h-206v-1349h206v-112h-593v112zM491 2135l212 -373l128 78l-292 501h-96l-292 -501l128 -78z" />
<glyph unicode="&#xcf;" horiz-adv-x="983" d="M195 112h204v1349h-204v118h593v-118h-206v-1349h206v-112h-593v112zM252 1962q48 0 78 -33.5t30 -81.5t-30 -81.5t-78 -33.5q-49 0 -80.5 34t-31.5 81t31.5 81t80.5 34zM742 1962q48 0 78 -33.5t30 -81.5t-30 -81.5t-78 -33.5q-49 0 -80.5 34t-31.5 81t31.5 81t80.5 34z " />
<glyph unicode="&#xd0;" horiz-adv-x="1491" d="M1167 789q0 120 -13 215t-45.5 178t-84 137.5t-131 85.5t-184.5 31h-359v-1293h359q105 0 184.5 31t131 85t83.5 136.5t45.5 178t13.5 215.5zM709 1579q337 -7 498 -206.5t161 -584.5q0 -788 -659 -788h-553v1579h553zM584 764h-590v131h590v-131z" />
<glyph unicode="&#xd1;" horiz-adv-x="1665" d="M1297 145v1434h162v-1579h-262l-829 1434v-1434h-162v1579h262zM1021 1732q-49 0 -106 18.5t-98 41t-83.5 41t-65.5 18.5q-29 0 -44 -24.5t-15 -90.5h-156q0 260 201 260q50 0 102.5 -19.5t89 -43t78.5 -43t74 -19.5q59 0 59 111h156q0 -114 -52 -182t-140 -68z" />
<glyph unicode="&#xd2;" horiz-adv-x="1558" d="M1434 784q0 -145 -21 -267t-71 -226.5t-125 -177t-186 -113.5t-253 -41q-62 0 -119 7.5t-125 30.5t-124 60t-111 101t-92 148t-60 206.5t-23 271.5q0 146 22 266.5t59 204.5t90 148.5t109 103t122 62.5t122 32.5t116 8.5q146 0 260 -40.5t190 -112.5t126 -176.5t72 -227 t22 -269.5zM1234 784q0 188 -32 321t-94 209t-142 110t-186 34t-187 -35t-131 -94.5t-82 -147.5t-44 -183.5t-12 -213.5q0 -183 32 -315t94 -209.5t143 -113t187 -35.5q88 0 159 24t120 70t84 105.5t54 137.5t28 159t9 177zM797 1758l-67 -26l-328 555l242 89z" />
<glyph unicode="&#xd3;" horiz-adv-x="1558" d="M1434 784q0 -145 -21 -267t-71 -226.5t-125 -177t-186 -113.5t-253 -41q-62 0 -119 7.5t-125 30.5t-124 60t-111 101t-92 148t-60 206.5t-23 271.5q0 146 22 266.5t59 204.5t90 148.5t109 103t122 62.5t122 32.5t116 8.5q146 0 260 -40.5t190 -112.5t126 -176.5t72 -227 t22 -269.5zM1234 784q0 188 -32 321t-94 209t-142 110t-186 34t-187 -35t-131 -94.5t-82 -147.5t-44 -183.5t-12 -213.5q0 -183 32 -315t94 -209.5t143 -113t187 -35.5q88 0 159 24t120 70t84 105.5t54 137.5t28 159t9 177zM792 1732l-57 26l159 611l232 -91z" />
<glyph unicode="&#xd4;" horiz-adv-x="1558" d="M1434 784q0 -145 -21 -267t-71 -226.5t-125 -177t-186 -113.5t-253 -41q-62 0 -119 7.5t-125 30.5t-124 60t-111 101t-92 148t-60 206.5t-23 271.5q0 146 22 266.5t59 204.5t90 148.5t109 103t122 62.5t122 32.5t116 8.5q146 0 260 -40.5t190 -112.5t126 -176.5t72 -227 t22 -269.5zM1234 784q0 188 -32 321t-94 209t-142 110t-186 34t-187 -35t-131 -94.5t-82 -147.5t-44 -183.5t-12 -213.5q0 -183 32 -315t94 -209.5t143 -113t187 -35.5q88 0 159 24t120 70t84 105.5t54 137.5t28 159t9 177zM764 2139l212 -377l128 78l-292 501h-96 l-292 -501l128 -78z" />
<glyph unicode="&#xd5;" horiz-adv-x="1558" d="M1434 784q0 -145 -21 -267t-71 -226.5t-125 -177t-186 -113.5t-253 -41q-62 0 -119 7.5t-125 30.5t-124 60t-111 101t-92 148t-60 206.5t-23 271.5q0 146 22 266.5t59 204.5t90 148.5t109 103t122 62.5t122 32.5t116 8.5q146 0 260 -40.5t190 -112.5t126 -176.5t72 -227 t22 -269.5zM1234 784q0 188 -32 321t-94 209t-142 110t-186 34t-187 -35t-131 -94.5t-82 -147.5t-44 -183.5t-12 -213.5q0 -183 32 -315t94 -209.5t143 -113t187 -35.5q88 0 159 24t120 70t84 105.5t54 137.5t28 159t9 177zM952 1732q-49 0 -106 18.5t-98 41t-83.5 41 t-65.5 18.5q-29 0 -44 -24.5t-15 -90.5h-156q0 260 201 260q50 0 102.5 -19.5t89 -43t78.5 -43t74 -19.5q59 0 59 111h156q0 -114 -52 -182t-140 -68z" />
<glyph unicode="&#xd6;" horiz-adv-x="1558" d="M1434 784q0 -145 -21 -267t-71 -226.5t-125 -177t-186 -113.5t-253 -41q-62 0 -119 7.5t-125 30.5t-124 60t-111 101t-92 148t-60 206.5t-23 271.5q0 146 22 266.5t59 204.5t90 148.5t109 103t122 62.5t122 32.5t116 8.5q146 0 260 -40.5t190 -112.5t126 -176.5t72 -227 t22 -269.5zM1234 784q0 188 -32 321t-94 209t-142 110t-186 34t-187 -35t-131 -94.5t-82 -147.5t-44 -183.5t-12 -213.5q0 -183 32 -315t94 -209.5t143 -113t187 -35.5q88 0 159 24t120 70t84 105.5t54 137.5t28 159t9 177zM521 1962q48 0 78 -33.5t30 -81.5t-30 -81.5 t-78 -33.5q-49 0 -80.5 34t-31.5 81t31.5 81t80.5 34zM1011 1962q48 0 78 -33.5t30 -81.5t-30 -81.5t-78 -33.5q-49 0 -80.5 34t-31.5 81t31.5 81t80.5 34z" />
<glyph unicode="&#xd7;" horiz-adv-x="1365" d="M278 863l102 102l317 -317l317 317l102 -102l-317 -317l317 -317l-102 -102l-317 317l-317 -317l-102 102l317 317z" />
<glyph unicode="&#xd8;" horiz-adv-x="1557" d="M349 -113l825 1823l101 -42l-825 -1827zM1434 784q0 -145 -21.5 -267t-71 -226.5t-124.5 -177t-186.5 -113.5t-252.5 -41q-62 0 -119 7.5t-125 30.5t-124.5 60t-111 101t-92 148t-60.5 206.5t-23 271.5q0 146 22.5 266.5t59.5 204.5t90 148.5t109 103t121.5 62.5 t122 32.5t116.5 8.5q145 0 259 -40.5t190.5 -112.5t126.5 -176.5t72 -227t22 -269.5zM1233 784q0 188 -32 321t-93.5 209t-142 110t-186.5 34t-186.5 -35t-131 -94.5t-82 -147.5t-43.5 -183.5t-12 -213.5q0 -183 32 -315t93.5 -209.5t142.5 -113t187 -35.5q89 0 159.5 24 t119.5 70t84 105.5t54.5 137.5t28 159t8.5 177z" />
<glyph unicode="&#xd9;" horiz-adv-x="1664" d="M830 -41q-168 0 -289 49.5t-195 148.5t-108 236t-34 322v864h192v-868q0 -129 14 -227t42 -164t64 -110t87 -68t104 -33t123 -9q86 0 147 13t118 52t92 105.5t56 177t21 263.5v868h196v-864q0 -133 -17 -240.5t-60 -206t-113 -165t-181 -105.5t-259 -39zM831 1758 l-67 -26l-328 555l242 89z" />
<glyph unicode="&#xda;" horiz-adv-x="1664" d="M830 -41q-168 0 -289 49.5t-195 148.5t-108 236t-34 322v864h192v-868q0 -129 14 -227t42 -164t64 -110t87 -68t104 -33t123 -9q86 0 147 13t118 52t92 105.5t56 177t21 263.5v868h196v-864q0 -133 -17 -240.5t-60 -206t-113 -165t-181 -105.5t-259 -39zM826 1732l-57 26 l159 611l232 -91z" />
<glyph unicode="&#xdb;" horiz-adv-x="1664" d="M830 -41q-168 0 -289 49.5t-195 148.5t-108 236t-34 322v864h192v-868q0 -129 14 -227t42 -164t64 -110t87 -68t104 -33t123 -9q86 0 147 13t118 52t92 105.5t56 177t21 263.5v868h196v-864q0 -133 -17 -240.5t-60 -206t-113 -165t-181 -105.5t-259 -39zM797 2139 l212 -377l128 78l-292 501h-96l-292 -501l128 -78z" />
<glyph unicode="&#xdc;" horiz-adv-x="1664" d="M830 -41q-168 0 -289 49.5t-195 148.5t-108 236t-34 322v864h192v-868q0 -129 14 -227t42 -164t64 -110t87 -68t104 -33t123 -9q86 0 147 13t118 52t92 105.5t56 177t21 263.5v868h196v-864q0 -133 -17 -240.5t-60 -206t-113 -165t-181 -105.5t-259 -39zM595 1962 q48 0 78 -33.5t30 -81.5t-30 -81.5t-78 -33.5q-49 0 -80.5 34t-31.5 81t31.5 81t80.5 34zM1085 1962q48 0 78 -33.5t30 -81.5t-30 -81.5t-78 -33.5q-49 0 -80.5 34t-31.5 81t31.5 81t80.5 34z" />
<glyph unicode="&#xdd;" horiz-adv-x="1272" d="M641 677l58 129l355 773h191l-514 -1094v-485h-190v485l-514 1094h197l354 -773zM692 1732l-57 26l159 611l232 -91z" />
<glyph unicode="&#xde;" horiz-adv-x="1456" d="M1245 973q0 -88 -21 -157t-72 -129t-133.5 -99.5t-210 -61.5t-296.5 -22h-162v-504h-194v1579h194v-135h197q166 0 288.5 -21t200.5 -58.5t125 -97.5t65.5 -130t18.5 -164zM512 649q137 0 236 15t159 40t95.5 66t48 85t12.5 104q0 77 -11.5 128.5t-42.5 95t-87.5 67.5 t-145 37t-217.5 13h-209v-651h162z" />
<glyph unicode="&#xdf;" horiz-adv-x="1407" d="M523 905q203 12 269 29q97 25 131 98q28 58 28 168q0 68 -22 114.5t-66 73t-100 37.5t-133 11q-58 0 -100.5 -9.5t-73.5 -32t-50 -53.5t-30.5 -80t-16 -106t-4.5 -137v-1002l-194 -22v997q-5 152 17.5 260t77.5 182.5t147.5 110t226.5 35.5q493 0 493 -403 q0 -139 -63 -228t-183 -104q94 0 172.5 -30t135 -85.5t88.5 -140t32 -189.5v-4q0 -88 -23.5 -161t-64 -126.5t-99 -95t-124.5 -67.5t-145 -43t-156 -24t-162 -7v156q146 0 252.5 19t171 51.5t103 84.5t52 108.5t13.5 133.5v8q0 63 -18.5 114.5t-61 94.5t-108 72t-163 45 t-222.5 16h-51v131h24z" />
<glyph unicode="&#xe0;" horiz-adv-x="1239" d="M629 1338l-67 -26l-328 555l242 89zM552 119q174 0 336 152v298q-128 21 -241 21t-178 -16t-101 -48q-64 -60 -64 -179t59.5 -173.5t188.5 -54.5zM888 665v48q0 100 -9 159t-46.5 101t-86.5 58t-116.5 16t-125 -12.5t-100 -30t-78.5 -34.5q-59 -30 -73 -42l-68 132l45 25 q175 105 376 105q272 0 372 -115t100 -389v-686h-140l-28 178q-146 -201 -405 -201q-186 0 -289 93t-103 269v4q0 178 121 275t323 97q72 0 175 -14.5t156 -35.5z" />
<glyph unicode="&#xe1;" horiz-adv-x="1239" d="M624 1312l-57 26l159 611l232 -91zM552 119q174 0 336 152v298q-128 21 -241 21t-178 -16t-101 -48q-64 -60 -64 -179t59.5 -173.5t188.5 -54.5zM888 665v48q0 100 -9 159t-46.5 101t-86.5 58t-116.5 16t-125 -12.5t-100 -30t-78.5 -34.5q-59 -30 -73 -42l-68 132l45 25 q175 105 376 105q272 0 372 -115t100 -389v-686h-140l-28 178q-146 -201 -405 -201q-186 0 -289 93t-103 269v4q0 178 121 275t323 97q72 0 175 -14.5t156 -35.5z" />
<glyph unicode="&#xe2;" horiz-adv-x="1239" d="M385 1312l-128 78l292 501h96l292 -501l-128 -78l-212 377zM552 119q174 0 336 152v298q-128 21 -241 21t-178 -16t-101 -48q-64 -60 -64 -179t59.5 -173.5t188.5 -54.5zM888 665v48q0 100 -9 159t-46.5 101t-86.5 58t-116.5 16t-125 -12.5t-100 -30t-78.5 -34.5 q-59 -30 -73 -42l-68 132l45 25q175 105 376 105q272 0 372 -115t100 -389v-686h-140l-28 178q-146 -201 -405 -201q-186 0 -289 93t-103 269v4q0 178 121 275t323 97q72 0 175 -14.5t156 -35.5z" />
<glyph unicode="&#xe3;" horiz-adv-x="1239" d="M784 1312q-49 0 -106 18.5t-98 41t-83.5 41t-65.5 18.5q-29 0 -44 -24.5t-15 -90.5h-156q0 260 201 260q50 0 102.5 -19.5t89 -43t78.5 -43t74 -19.5q59 0 59 111h156q0 -114 -52 -182t-140 -68zM552 119q174 0 336 152v298q-128 21 -241 21t-178 -16t-101 -48 q-64 -60 -64 -179t59.5 -173.5t188.5 -54.5zM888 665v48q0 100 -9 159t-46.5 101t-86.5 58t-116.5 16t-125 -12.5t-100 -30t-78.5 -34.5q-59 -30 -73 -42l-68 132l45 25q175 105 376 105q272 0 372 -115t100 -389v-686h-140l-28 178q-146 -201 -405 -201q-186 0 -289 93 t-103 269v4q0 178 121 275t323 97q72 0 175 -14.5t156 -35.5z" />
<glyph unicode="&#xe4;" horiz-adv-x="1239" d="M353 1542q48 0 78 -33.5t30 -81.5t-30 -81.5t-78 -33.5q-49 0 -80.5 34t-31.5 81t31.5 81t80.5 34zM843 1542q48 0 78 -33.5t30 -81.5t-30 -81.5t-78 -33.5q-49 0 -80.5 34t-31.5 81t31.5 81t80.5 34zM552 119q174 0 336 152v298q-128 21 -241 21t-178 -16t-101 -48 q-64 -60 -64 -179t59.5 -173.5t188.5 -54.5zM888 665v48q0 100 -9 159t-46.5 101t-86.5 58t-116.5 16t-125 -12.5t-100 -30t-78.5 -34.5q-59 -30 -73 -42l-68 132l45 25q175 105 376 105q272 0 372 -115t100 -389v-686h-140l-28 178q-146 -201 -405 -201q-186 0 -289 93 t-103 269v4q0 178 121 275t323 97q72 0 175 -14.5t156 -35.5z" />
<glyph unicode="&#xe5;" horiz-adv-x="1239" d="M598 1700q-63 0 -104 -43.5t-41 -105t41.5 -105.5t103.5 -44q63 0 102 43.5t39 105.5q0 63 -39 106t-102 43zM600 1791q105 0 170.5 -67.5t65.5 -172.5q0 -103 -65 -171t-171 -68q-108 0 -176 68.5t-68 171t68 171t176 68.5zM552 119q174 0 336 152v298q-128 21 -241 21 t-178 -16t-101 -48q-64 -60 -64 -179t59.5 -173.5t188.5 -54.5zM888 665v48q0 100 -9 159t-46.5 101t-86.5 58t-116.5 16t-125 -12.5t-100 -30t-78.5 -34.5q-59 -30 -73 -42l-68 132l45 25q175 105 376 105q272 0 372 -115t100 -389v-686h-140l-28 178q-146 -201 -405 -201 q-186 0 -289 93t-103 269v4q0 178 121 275t323 97q72 0 175 -14.5t156 -35.5z" />
<glyph unicode="&#xe6;" horiz-adv-x="1897" d="M864 665v48q0 100 -9 159t-36.5 101t-76.5 58t-130 16q-113 0 -218 -41q-103 -40 -145 -72l-67 125q65 55 192.5 93t227.5 38q161 0 253.5 -50t128.5 -170q53 110 160.5 165t234.5 55q214 0 328.5 -139.5t114.5 -374.5q0 -48 -8 -109h-760q0 -102 15.5 -177t53 -137 t107 -94t170.5 -32q170 0 306 117l62 -145q-78 -57 -190.5 -89.5t-189.5 -32.5q-150 0 -259.5 59.5t-173.5 170.5q-34 -45 -78.5 -84.5t-101 -73t-126 -53t-141.5 -19.5q-186 0 -289 93t-103 269v4q0 178 121 275t323 97q72 0 161.5 -14.5t142.5 -35.5zM555 119 q147 0 309 152v298q-128 21 -231 21q-96 0 -161 -16t-100.5 -48.5t-50 -73t-14.5 -96.5q0 -128 59.5 -182.5t188.5 -54.5zM1654 717q0 85 -18.5 148.5t-46 99t-66 57.5t-72 28.5t-71.5 6.5q-43 0 -83 -8t-86 -33t-79.5 -65t-55.5 -109t-22 -160h600v35z" />
<glyph unicode="&#xe7;" horiz-adv-x="1122" d="M298 580q0 235 87.5 347.5t250.5 112.5q181 0 314 -116l57 133q-188 133 -388 133q-67 0 -132.5 -16.5t-135.5 -59.5t-122.5 -109.5t-86.5 -176t-34 -248.5q0 -140 34 -249t86.5 -174t122.5 -107t134.5 -57.5t130.5 -15.5q204 0 391 134l-57 134q-127 -118 -329 -118 q-66 0 -121.5 23t-102 73t-73 141t-26.5 216zM425 -617v117l32 -10t73 -20.5t59 -10.5q27 0 42 1t36.5 8t32.5 21t19.5 40.5t8.5 65.5q0 79 -59.5 110.5t-193.5 31.5v262h121v-174q125 0 195 -54t70 -190q0 -236 -252 -236q-17 0 -36.5 2t-36.5 5.5t-34 7.5t-30.5 8t-24 7.5 l-16.5 5.5z" />
<glyph unicode="&#xe8;" horiz-adv-x="1145" d="M898 717q0 85 -18.5 148.5t-46 99t-66 57.5t-72 28.5t-71.5 6.5q-43 0 -83 -8t-86 -33t-79.5 -65t-55.5 -109t-22 -160h600v35zM298 567q0 -102 15.5 -177t53 -137t107 -94t170.5 -32q170 0 306 117l62 -145q-78 -57 -190.5 -89.5t-189.5 -32.5q-251 0 -387.5 161 t-136.5 440q0 145 39 261.5t108 193t163 117t205 40.5q214 0 328.5 -139.5t114.5 -374.5q0 -48 -8 -109h-760zM657 1338l-67 -26l-328 555l242 89z" />
<glyph unicode="&#xe9;" horiz-adv-x="1145" d="M898 717q0 85 -18.5 148.5t-46 99t-66 57.5t-72 28.5t-71.5 6.5q-43 0 -83 -8t-86 -33t-79.5 -65t-55.5 -109t-22 -160h600v35zM298 567q0 -102 15.5 -177t53 -137t107 -94t170.5 -32q170 0 306 117l62 -145q-78 -57 -190.5 -89.5t-189.5 -32.5q-251 0 -387.5 161 t-136.5 440q0 145 39 261.5t108 193t163 117t205 40.5q214 0 328.5 -139.5t114.5 -374.5q0 -48 -8 -109h-760zM652 1312l-57 26l159 611l232 -91z" />
<glyph unicode="&#xea;" horiz-adv-x="1145" d="M898 717q0 85 -18.5 148.5t-46 99t-66 57.5t-72 28.5t-71.5 6.5q-43 0 -83 -8t-86 -33t-79.5 -65t-55.5 -109t-22 -160h600v35zM298 567q0 -102 15.5 -177t53 -137t107 -94t170.5 -32q170 0 306 117l62 -145q-78 -57 -190.5 -89.5t-189.5 -32.5q-251 0 -387.5 161 t-136.5 440q0 145 39 261.5t108 193t163 117t205 40.5q214 0 328.5 -139.5t114.5 -374.5q0 -48 -8 -109h-760zM622 1719l212 -377l128 78l-292 501h-96l-292 -501l128 -78z" />
<glyph unicode="&#xeb;" horiz-adv-x="1145" d="M898 717q0 85 -18.5 148.5t-46 99t-66 57.5t-72 28.5t-71.5 6.5q-43 0 -83 -8t-86 -33t-79.5 -65t-55.5 -109t-22 -160h600v35zM298 567q0 -102 15.5 -177t53 -137t107 -94t170.5 -32q170 0 306 117l62 -145q-78 -57 -190.5 -89.5t-189.5 -32.5q-251 0 -387.5 161 t-136.5 440q0 145 39 261.5t108 193t163 117t205 40.5q214 0 328.5 -139.5t114.5 -374.5q0 -48 -8 -109h-760zM380 1582q48 0 78 -33.5t30 -81.5t-30 -81.5t-78 -33.5q-49 0 -80.5 34t-31.5 81t31.5 81t80.5 34zM870 1582q48 0 78 -33.5t30 -81.5t-30 -81.5t-78 -33.5 q-49 0 -80.5 34t-31.5 81t31.5 81t80.5 34z" />
<glyph unicode="&#xec;" horiz-adv-x="600" d="M408 0h-182v1169h182v-1169zM349 1338l-67 -26l-328 555l242 89z" />
<glyph unicode="&#xed;" horiz-adv-x="600" d="M408 0h-182v1169h182v-1169zM344 1312l-57 26l159 611l232 -91z" />
<glyph unicode="&#xee;" horiz-adv-x="600" d="M408 0h-182v1169h182v-1169zM316 1719l212 -377l128 78l-292 501h-96l-292 -501l128 -78z" />
<glyph unicode="&#xef;" horiz-adv-x="600" d="M408 0h-182v1169h182v-1169zM73 1582q48 0 78 -33.5t30 -81.5t-30 -81.5t-78 -33.5q-49 0 -80.5 34t-31.5 81t31.5 81t80.5 34zM563 1582q48 0 78 -33.5t30 -81.5t-30 -81.5t-78 -33.5q-49 0 -80.5 34t-31.5 81t31.5 81t80.5 34z" />
<glyph unicode="&#xf0;" horiz-adv-x="1265" d="M453 1401l648 192l42 -90l-648 -192zM1129 690q0 -710 -533 -710q-126 0 -221.5 49t-151.5 135t-83.5 191.5t-27.5 228.5q0 170 51.5 305.5t158 218t252.5 82.5q117 0 217 -51t148 -111q-54 165 -191 333.5t-313 279.5l84 102q87 -48 169 -114t163.5 -163.5t142 -210 t98 -260t37.5 -305.5zM945 666q0 88 -22.5 157t-57 110t-80 67.5t-86.5 36.5t-81 10q-36 0 -66.5 -4t-64.5 -16.5t-61 -33t-52.5 -56t-42.5 -82.5t-27 -115.5t-10 -152.5q0 -464 298 -464q118 0 193.5 50t117.5 171.5t42 321.5z" />
<glyph unicode="&#xf1;" horiz-adv-x="1371" d="M381 880v-880h-190v1169h140l24 -187q62 78 191 142t258 64q50 0 96 -9.5t98 -39.5t89.5 -79t62.5 -134.5t25 -198.5v-727h-190v727q0 73 -11 129t-35.5 100.5t-69.5 67.5t-108 23q-102 0 -218.5 -61.5t-161.5 -105.5zM866 1312q-49 0 -106 18.5t-98 41t-83.5 41 t-65.5 18.5q-29 0 -44 -24.5t-15 -90.5h-156q0 260 201 260q50 0 102.5 -19.5t89 -43t78.5 -43t74 -19.5q59 0 59 111h156q0 -114 -52 -182t-140 -68z" />
<glyph unicode="&#xf2;" horiz-adv-x="1313" d="M308 582q0 -103 20 -186t60.5 -146.5t108.5 -98t159 -34.5t159 34.5t109 98t60.5 146.5t19.5 186t-20 186.5t-60.5 147.5t-108.5 99.5t-159 35.5t-159 -35t-108.5 -99.5t-60.5 -148t-20 -186.5zM126 582q0 126 32.5 234.5t96 192.5t166.5 132.5t235 48.5q106 0 194 -31.5 t150 -87.5t104.5 -132.5t62.5 -166.5t20 -190q0 -126 -32.5 -234t-96.5 -191t-167 -130t-235 -47q-106 0 -194 31t-149.5 85.5t-104 130.5t-62.5 165t-20 190zM671 1338l-67 -26l-328 555l242 89z" />
<glyph unicode="&#xf3;" horiz-adv-x="1313" d="M308 582q0 -103 20 -186t60.5 -146.5t108.5 -98t159 -34.5t159 34.5t109 98t60.5 146.5t19.5 186t-20 186.5t-60.5 147.5t-108.5 99.5t-159 35.5t-159 -35t-108.5 -99.5t-60.5 -148t-20 -186.5zM126 582q0 126 32.5 234.5t96 192.5t166.5 132.5t235 48.5q106 0 194 -31.5 t150 -87.5t104.5 -132.5t62.5 -166.5t20 -190q0 -126 -32.5 -234t-96.5 -191t-167 -130t-235 -47q-106 0 -194 31t-149.5 85.5t-104 130.5t-62.5 165t-20 190zM666 1312l-57 26l159 611l232 -91z" />
<glyph unicode="&#xf4;" horiz-adv-x="1313" d="M308 582q0 -103 20 -186t60.5 -146.5t108.5 -98t159 -34.5t159 34.5t109 98t60.5 146.5t19.5 186t-20 186.5t-60.5 147.5t-108.5 99.5t-159 35.5t-159 -35t-108.5 -99.5t-60.5 -148t-20 -186.5zM126 582q0 126 32.5 234.5t96 192.5t166.5 132.5t235 48.5q106 0 194 -31.5 t150 -87.5t104.5 -132.5t62.5 -166.5t20 -190q0 -126 -32.5 -234t-96.5 -191t-167 -130t-235 -47q-106 0 -194 31t-149.5 85.5t-104 130.5t-62.5 165t-20 190zM638 1719l212 -377l128 78l-292 501h-96l-292 -501l128 -78z" />
<glyph unicode="&#xf5;" horiz-adv-x="1313" d="M308 582q0 -103 20 -186t60.5 -146.5t108.5 -98t159 -34.5t159 34.5t109 98t60.5 146.5t19.5 186t-20 186.5t-60.5 147.5t-108.5 99.5t-159 35.5t-159 -35t-108.5 -99.5t-60.5 -148t-20 -186.5zM126 582q0 126 32.5 234.5t96 192.5t166.5 132.5t235 48.5q106 0 194 -31.5 t150 -87.5t104.5 -132.5t62.5 -166.5t20 -190q0 -126 -32.5 -234t-96.5 -191t-167 -130t-235 -47q-106 0 -194 31t-149.5 85.5t-104 130.5t-62.5 165t-20 190zM826 1312q-49 0 -106 18.5t-98 41t-83.5 41t-65.5 18.5q-29 0 -44 -24.5t-15 -90.5h-156q0 260 201 260 q50 0 102.5 -19.5t89 -43t78.5 -43t74 -19.5q59 0 59 111h156q0 -114 -52 -182t-140 -68z" />
<glyph unicode="&#xf6;" horiz-adv-x="1313" d="M308 582q0 -103 20 -186t60.5 -146.5t108.5 -98t159 -34.5t159 34.5t109 98t60.5 146.5t19.5 186t-20 186.5t-60.5 147.5t-108.5 99.5t-159 35.5t-159 -35t-108.5 -99.5t-60.5 -148t-20 -186.5zM126 582q0 126 32.5 234.5t96 192.5t166.5 132.5t235 48.5q106 0 194 -31.5 t150 -87.5t104.5 -132.5t62.5 -166.5t20 -190q0 -126 -32.5 -234t-96.5 -191t-167 -130t-235 -47q-106 0 -194 31t-149.5 85.5t-104 130.5t-62.5 165t-20 190zM395 1582q48 0 78 -33.5t30 -81.5t-30 -81.5t-78 -33.5q-49 0 -80.5 34t-31.5 81t31.5 81t80.5 34zM885 1582 q48 0 78 -33.5t30 -81.5t-30 -81.5t-78 -33.5q-49 0 -80.5 34t-31.5 81t31.5 81t80.5 34z" />
<glyph unicode="&#xf7;" horiz-adv-x="1068" d="M906 508h-682v131h682v-131zM563 950q48 0 78 -33.5t30 -81.5t-30 -81.5t-78 -33.5q-49 0 -80.5 34t-31.5 81t31.5 81t80.5 34zM561 415q48 0 78 -33.5t30 -81.5t-30 -81.5t-78 -33.5q-49 0 -80.5 34t-31.5 81t31.5 81t80.5 34z" />
<glyph unicode="&#xf8;" horiz-adv-x="1277" d="M334 -168l529 1533l81 -30l-522 -1533zM290 582q0 -103 20 -186t60.5 -146.5t108.5 -98t159 -34.5t159 34.5t109 98t60.5 146.5t19.5 186t-20 186.5t-60.5 147.5t-108.5 99.5t-159 35.5t-159 -35t-108.5 -99.5t-60.5 -148t-20 -186.5zM108 582q0 126 32.5 234.5 t95.5 192.5t166.5 132.5t235.5 48.5q106 0 194.5 -31.5t150 -87.5t104 -132.5t62.5 -166.5t20 -190q0 -127 -32.5 -234.5t-96.5 -190.5t-167 -130t-235 -47t-235 47t-166.5 130.5t-96 191t-32.5 233.5z" />
<glyph unicode="&#xf9;" horiz-adv-x="1264" d="M322 442q0 -154 52.5 -236.5t179.5 -82.5q193 0 354 151v895h190v-1169h-141l-27 176q-90 -101 -183 -148.5t-203 -47.5q-195 0 -303.5 111t-108.5 351v727h190v-727zM649 1338l-67 -26l-328 555l242 89z" />
<glyph unicode="&#xfa;" horiz-adv-x="1264" d="M322 442q0 -154 52.5 -236.5t179.5 -82.5q193 0 354 151v895h190v-1169h-141l-27 176q-90 -101 -183 -148.5t-203 -47.5q-195 0 -303.5 111t-108.5 351v727h190v-727zM644 1312l-57 26l159 611l232 -91z" />
<glyph unicode="&#xfb;" horiz-adv-x="1264" d="M322 442q0 -154 52.5 -236.5t179.5 -82.5q193 0 354 151v895h190v-1169h-141l-27 176q-90 -101 -183 -148.5t-203 -47.5q-195 0 -303.5 111t-108.5 351v727h190v-727zM614 1719l212 -377l128 78l-292 501h-96l-292 -501l128 -78z" />
<glyph unicode="&#xfc;" horiz-adv-x="1264" d="M322 442q0 -154 52.5 -236.5t179.5 -82.5q193 0 354 151v895h190v-1169h-141l-27 176q-90 -101 -183 -148.5t-203 -47.5q-195 0 -303.5 111t-108.5 351v727h190v-727zM372 1582q48 0 78 -33.5t30 -81.5t-30 -81.5t-78 -33.5q-49 0 -80.5 34t-31.5 81t31.5 81t80.5 34z M862 1582q48 0 78 -33.5t30 -81.5t-30 -81.5t-78 -33.5q-49 0 -80.5 34t-31.5 81t31.5 81t80.5 34z" />
<glyph unicode="&#xfd;" horiz-adv-x="1223" d="M630 249l301 920h195l-437 -1206q-48 -132 -63 -166q-89 -190 -245 -238q-58 -18 -126 -18l-51 125q151 26 217 95t123 262l-451 1146h182zM569 1312l-57 26l159 611l232 -91z" />
<glyph unicode="&#xfe;" horiz-adv-x="1361" d="M1143 584q0 -118 -27.5 -223.5t-82 -192t-147 -137.5t-212.5 -51q-249 0 -359 137v-582l-186 -22v2052h184v-561q64 79 157.5 132.5t203.5 53.5q99 0 179 -34.5t133 -92t89 -136t52 -164.5t16 -179zM961 543q0 50 -3 95.5t-11 97.5t-21 95.5t-35.5 84.5t-51.5 69 t-71.5 45t-93.5 17q-60 0 -119.5 -19.5t-104 -49t-70 -50.5t-42.5 -38l-16 -646q61 -52 161 -86.5t199 -34.5q51 0 96 18t88.5 69.5t65.5 132.5q29 106 29 200z" />
<glyph unicode="&#xff;" horiz-adv-x="1223" d="M630 249l301 920h195l-437 -1206q-48 -132 -63 -166q-89 -190 -245 -238q-58 -18 -126 -18l-51 125q151 26 217 95t123 262l-451 1146h182zM297 1582q48 0 78 -33.5t30 -81.5t-30 -81.5t-78 -33.5q-49 0 -80.5 34t-31.5 81t31.5 81t80.5 34zM787 1582q48 0 78 -33.5 t30 -81.5t-30 -81.5t-78 -33.5q-49 0 -80.5 34t-31.5 81t31.5 81t80.5 34z" />
<glyph unicode="&#x131;" horiz-adv-x="600" d="M408 0h-182v1169h182v-1169z" />
<glyph unicode="&#x168;" horiz-adv-x="1664" d="M830 -41q-168 0 -289 49.5t-195 148.5t-108 236t-34 322v864h192v-868q0 -129 14 -227t42 -164t64 -110t87 -68t104 -33t123 -9q86 0 147 13t118 52t92 105.5t56 177t21 263.5v868h196v-864q0 -133 -17 -240.5t-60 -206t-113 -165t-181 -105.5t-259 -39zM985 1732 q-49 0 -106 18.5t-98 41t-83.5 41t-65.5 18.5q-29 0 -44 -24.5t-15 -90.5h-156q0 260 201 260q50 0 102.5 -19.5t89 -43t78.5 -43t74 -19.5q59 0 59 111h156q0 -114 -52 -182t-140 -68z" />
<glyph unicode="&#x3bc;" horiz-adv-x="1328" d="M599 -20q-43 0 -83.5 13.5t-67.5 33t-48 39.5t-31 34l-10 13v-404h-174v1460h174v-727q0 -319 252 -319q68 0 132.5 19.5t108.5 48t69 49t37 34.5v895h208v-1153h-146l-24 154q-171 -190 -397 -190z" />
<glyph unicode="&#x2013;" horiz-adv-x="1265" d="M832 555h-470v144h470v-144z" />
<glyph unicode="&#x2014;" horiz-adv-x="1265" d="M1067 555h-940v144h940v-144z" />
<glyph unicode="&#x2018;" horiz-adv-x="778" d="M463 356l-67 -26l-328 555l242 89z" />
<glyph unicode="&#x2019;" horiz-adv-x="537" d="M114 1286v293h281v-249q0 -114 -58.5 -189.5t-170.5 -107.5l-51 94q75 26 102.5 60t27.5 99h-131z" />
<glyph unicode="&#x201a;" horiz-adv-x="647" d="M224 0v293h281v-249q0 -114 -58.5 -189.5t-170.5 -107.5l-51 94q75 26 102.5 60t27.5 99h-131z" />
<glyph unicode="&#x201c;" horiz-adv-x="939" d="M422 1356v-293h-281v249q0 114 58.5 189.5t170.5 107.5l51 -94q-75 -26 -102.5 -60t-27.5 -99h131zM791 1356v-293h-281v249q0 114 58.5 189.5t170.5 107.5l51 -94q-75 -26 -102.5 -60t-27.5 -99h131z" />
<glyph unicode="&#x201d;" horiz-adv-x="831" d="M112 1286v293h281v-249q0 -114 -58.5 -189.5t-170.5 -107.5l-51 94q75 26 102.5 60t27.5 99h-131zM481 1286v293h281v-249q0 -114 -58.5 -189.5t-170.5 -107.5l-51 94q75 26 102.5 60t27.5 99h-131z" />
<glyph unicode="&#x201e;" horiz-adv-x="1112" d="M290 -19v293h281v-249q0 -114 -58.5 -189.5t-170.5 -107.5l-51 94q75 26 102.5 60t27.5 99h-131zM659 -19v293h281v-249q0 -114 -58.5 -189.5t-170.5 -107.5l-51 94q75 26 102.5 60t27.5 99h-131z" />
<glyph unicode="&#x2020;" horiz-adv-x="1070" d="M966 1020h-328v-1020h-190v1020h-336v141h335v307h193v-307h326v-141z" />
<glyph unicode="&#x2021;" horiz-adv-x="1237" d="M1056 1020h-328v-576h326v-139h-326v-305h-191v305h-335v139h335v576h-335v141h335v307h193v-307h326v-141z" />
<glyph unicode="&#x2022;" horiz-adv-x="1361" d="M649 358q-149 0 -248.5 97t-99.5 237t99.5 238t248.5 98t249.5 -98t100.5 -238t-100.5 -237t-249.5 -97z" />
<glyph unicode="&#x2026;" horiz-adv-x="1554" d="M245 213q48 0 78 -33.5t30 -81.5t-30 -81.5t-78 -33.5q-49 0 -80.5 34t-31.5 81t31.5 81t80.5 34zM763 213q48 0 78 -33.5t30 -81.5t-30 -81.5t-78 -33.5q-49 0 -80.5 34t-31.5 81t31.5 81t80.5 34zM1281 213q48 0 78 -33.5t30 -81.5t-30 -81.5t-78 -33.5q-49 0 -80.5 34 t-31.5 81t31.5 81t80.5 34z" />
<glyph unicode="&#x2039;" horiz-adv-x="768" d="M688 842l-447 -265l447 -271v-207l-608 382v185l608 383v-207z" />
<glyph unicode="&#x203a;" horiz-adv-x="768" d="M80 1049l608 -383v-185l-608 -382v207l446 271l-446 265v207z" />
<glyph unicode="&#x203e;" horiz-adv-x="512" d="M341 122h-682v117h682v-117z" />
<glyph unicode="&#x20ac;" horiz-adv-x="1162" d="M753 1439q52 0 102 -6t85 -15.5t63 -19t41 -15.5l14 -7l-43 -122q-14 6 -38 15t-93.5 24t-133.5 15q-162 0 -249 -97t-87 -280h394v-122h-405q-3 -28 -5 -113h353l-1 -122h-353q-1 -105 18 -188.5t50.5 -135.5t74.5 -86t86 -47.5t90 -14.5q45 0 90.5 8t79 19t61 22 t41 18.5t13.5 8.5l52 -123q-7 -5 -18 -11.5t-46 -22t-74 -27.5t-100.5 -21.5t-127.5 -10.5t-129.5 22.5t-121 73.5t-102.5 121.5t-73 173t-33 221.5h-164l1 122h159q2 86 4 113h-180v122h204q7 116 41 208.5t95 159.5t153.5 103.5t211.5 36.5z" />
<glyph unicode="&#x2122;" horiz-adv-x="1634" d="M626 1310h-209v-686h-135v686h-210v103h554v-103zM1149 758l184 655h229v-789h-127v664l-197 -664h-178l-196 664v-664h-128v789h229z" />
<glyph unicode="&#xe000;" horiz-adv-x="1170" d="M0 1170h1170v-1170h-1170v1170z" />
</font>
</defs>
</svg>
